<svg width="205" height="204" viewBox="0 0 205 204" fill="none" xmlns="http://www.w3.org/2000/svg">
<rect y="0.0100098" width="204.78" height="203.35" rx="16" fill="#F6F6F6"/>
<mask id="mask0_14_1321" style="mask-type:luminance" maskUnits="userSpaceOnUse" x="0" y="0" width="205" height="204">
<path d="M182.55 0C188.446 0 194.1 2.34208 198.269 6.51102C202.438 10.68 204.78 16.3342 204.78 22.23V181.13C204.78 187.026 202.438 192.68 198.269 196.849C194.1 201.018 188.446 203.36 182.55 203.36H22.23C16.3342 203.36 10.68 201.018 6.51102 196.849C2.34208 192.68 0 187.026 0 181.13V22.23C0 16.3342 2.34208 10.68 6.51102 6.51102C10.68 2.34208 16.3342 0 22.23 0" fill="white"/>
</mask>
<g mask="url(#mask0_14_1321)">
<g opacity="0.71">
<path d="M-11.23 88.5699C-5.53004 90.9899 1.16994 88 5.55994 83.64C9.94994 79.28 12.8899 73.6399 16.9999 69.0199C21.1099 64.3999 27.2299 60.6299 33.2299 61.9399C40.38 63.4899 45.7799 71.6699 52.9799 70.3999C60.81 69.0299 62.3199 58.3999 67.9099 52.7299C74.2299 46.3299 84.7299 47.3299 93.45 49.5499C102.17 51.7699 111.68 54.7099 119.82 50.8799C126.44 47.7599 130.33 40.9499 134.82 35.1699C139.31 29.3899 146.13 23.9799 153.23 25.5699C163.34 27.8299 168.3 42.8799 178.61 41.8799C185.8 41.1799 189.37 33.0799 194.61 28.0999C202.33 20.7399 215.81 20.5899 223.7 27.7699V151.69H-11.3L-11.23 88.5699Z" fill="url(#paint0_linear_14_1321)"/>
</g>
<path d="M-11.5601 89.7799C11.9899 97.8599 15.7399 50.8299 39.6899 66.4299C45.1999 70.0199 51.5499 74.4299 57.7799 69.5599C64.7799 64.1799 64.9799 53.6799 74.0099 50.2999C84.6299 46.2999 96.0099 52.3899 106.54 53.6899C116.01 54.8599 123.49 51.6099 129.54 44.3299C135.77 36.7299 144.14 21.5699 156.23 28.0499C162.72 31.5499 166.14 39.1099 172.97 42.1299C180.82 45.5699 186.63 39.5699 191.23 33.9199C194.97 29.2899 198.82 25.4999 204.87 24.2099C208.01 23.5231 211.266 23.5662 214.386 24.336C217.507 25.1058 220.41 26.5817 222.87 28.6499C224.09 29.6499 225.87 27.9199 224.64 26.8799C221.689 24.3635 218.164 22.6121 214.376 21.7802C210.588 20.9484 206.654 21.0616 202.92 22.1099C194.13 24.5699 191.03 31.8899 184.73 37.5699C175.36 45.9499 168.32 34.9199 161.82 29.1299C156.12 24.0199 149.23 22.4799 142.44 26.5699C133.44 31.8799 130.2 42.6899 121.71 48.4099C110.99 55.6299 97.98 48.4099 86.65 46.9999C78.82 45.9999 70.5799 47.1199 65.4699 53.7199C59.9599 60.8499 57.0499 73.9599 45.3899 67.2499C41.0499 64.7499 37.2599 61.0699 32.0499 60.5599C27.5499 60.1099 23.2699 62.0399 19.7799 64.7399C10.4099 72.0099 4.15993 92.5899 -10.9101 87.4199C-12.4401 86.8999 -13.09 89.3099 -11.57 89.8299L-11.5601 89.7799Z" fill="#F85C3A"/>
</g>
<path d="M171.85 123.15H33.4899C25.3051 123.15 18.6699 129.785 18.6699 137.97V167.62C18.6699 175.805 25.3051 182.44 33.4899 182.44H171.85C180.035 182.44 186.67 175.805 186.67 167.62V137.97C186.67 129.785 180.035 123.15 171.85 123.15Z" fill="#F85C3A"/>
<path d="M106.145 166.902C105.013 166.902 104.002 166.619 103.112 166.053C102.223 165.473 101.522 164.638 101.009 163.546C100.497 162.44 100.241 161.133 100.241 159.623C100.241 158.113 100.497 156.812 101.009 155.72C101.522 154.615 102.223 153.779 103.112 153.213C104.002 152.634 105.013 152.344 106.145 152.344C107.278 152.344 108.289 152.634 109.178 153.213C110.081 153.779 110.789 154.615 111.301 155.72C111.814 156.812 112.07 158.113 112.07 159.623C112.07 161.133 111.814 162.44 111.301 163.546C110.789 164.638 110.081 165.473 109.178 166.053C108.289 166.619 107.278 166.902 106.145 166.902ZM106.145 164.617C107.156 164.617 107.952 164.199 108.531 163.364C109.124 162.528 109.421 161.281 109.421 159.623C109.421 157.965 109.124 156.718 108.531 155.882C107.952 155.046 107.156 154.629 106.145 154.629C105.148 154.629 104.352 155.046 103.759 155.882C103.18 156.718 102.89 157.965 102.89 159.623C102.89 161.281 103.18 162.528 103.759 163.364C104.352 164.199 105.148 164.617 106.145 164.617Z" fill="#EFF4FF"/>
<path d="M99.0102 152.546V154.305L93.5103 166.7H90.6998L96.0176 154.77H90.4571V157.176H88.0105V152.546H99.0102Z" fill="#EFF4FF"/>
<path d="M80.5276 152.344C82.4688 152.344 83.9718 152.95 85.0367 154.164C86.1151 155.377 86.6543 157.116 86.6543 159.38C86.6543 160.971 86.3645 162.332 85.7848 163.465C85.2052 164.584 84.3897 165.44 83.3382 166.033C82.3003 166.612 81.0938 166.902 79.7188 166.902C78.9909 166.902 78.3034 166.828 77.6564 166.68C77.0228 166.518 76.4702 166.289 75.9984 165.992L76.9689 164.011C77.6699 164.469 78.5663 164.698 79.6582 164.698C81.0197 164.698 82.0846 164.28 82.8529 163.445C83.6213 162.609 84.0055 161.402 84.0055 159.825V159.805C83.5876 160.29 83.0551 160.661 82.4081 160.917C81.7611 161.16 81.0331 161.281 80.2243 161.281C79.2942 161.281 78.4585 161.106 77.7171 160.755C76.9757 160.391 76.396 159.879 75.9781 159.219C75.5603 158.558 75.3513 157.796 75.3513 156.934C75.3513 156.017 75.5805 155.215 76.0388 154.528C76.4971 153.827 77.1172 153.287 77.899 152.91C78.6809 152.532 79.5571 152.344 80.5276 152.344ZM80.7298 159.219C81.5791 159.219 82.2666 158.989 82.7923 158.531C83.3315 158.073 83.6011 157.493 83.6011 156.792C83.6011 156.105 83.3382 155.539 82.8125 155.094C82.3003 154.635 81.5858 154.406 80.6692 154.406C79.8469 154.406 79.1796 154.629 78.6674 155.073C78.1552 155.505 77.899 156.084 77.899 156.812C77.899 157.554 78.1552 158.14 78.6674 158.572C79.1796 159.003 79.8671 159.219 80.7298 159.219Z" fill="#EFF4FF"/>
<path d="M72.4166 163.485C72.8884 163.485 73.2793 163.64 73.5894 163.95C73.8994 164.26 74.0545 164.665 74.0545 165.163C74.0545 165.379 74.0208 165.608 73.9534 165.851C73.8994 166.08 73.7781 166.43 73.5894 166.902L72.5582 169.753H70.9203L71.7291 166.66C71.4326 166.538 71.1967 166.35 71.0215 166.093C70.8597 165.824 70.7788 165.514 70.7788 165.163C70.7788 164.665 70.9338 164.26 71.2439 163.95C71.5539 163.64 71.9448 163.485 72.4166 163.485Z" fill="#EFF4FF"/>
<path d="M69.1047 164.476V166.7H58.6712V164.941L64.2923 159.603C64.9259 158.996 65.3505 158.47 65.5662 158.026C65.7954 157.567 65.9099 157.116 65.9099 156.671C65.9099 156.01 65.6875 155.505 65.2427 155.154C64.7978 154.804 64.1441 154.629 63.2813 154.629C61.839 154.629 60.7336 155.121 59.9653 156.105L58.1252 154.689C58.6779 153.948 59.4193 153.375 60.3494 152.971C61.293 152.553 62.3445 152.344 63.5038 152.344C65.0405 152.344 66.2672 152.708 67.1838 153.436C68.1004 154.164 68.5588 155.154 68.5588 156.408C68.5588 157.176 68.397 157.898 68.0735 158.572C67.75 159.246 67.1299 160.014 66.2132 160.877L62.4321 164.476H69.1047Z" fill="#EFF4FF"/>
<path d="M52.606 157.965C53.5361 157.965 54.3719 158.147 55.1133 158.511C55.8547 158.861 56.4343 159.367 56.8522 160.027C57.2701 160.688 57.479 161.449 57.479 162.312C57.479 163.229 57.2498 164.038 56.7915 164.739C56.3332 165.426 55.7131 165.959 54.9313 166.336C54.1494 166.713 53.2732 166.902 52.3027 166.902C50.3616 166.902 48.8518 166.296 47.7734 165.082C46.7085 163.869 46.176 162.13 46.176 159.866C46.176 158.275 46.4658 156.92 47.0455 155.801C47.6251 154.669 48.4339 153.813 49.4719 153.233C50.5233 152.64 51.7365 152.344 53.1115 152.344C53.8394 152.344 54.5201 152.425 55.1537 152.586C55.8007 152.735 56.3602 152.957 56.832 153.254L55.8614 155.235C55.1604 154.777 54.264 154.548 53.1721 154.548C51.8107 154.548 50.7457 154.966 49.9774 155.801C49.209 156.637 48.8248 157.844 48.8248 159.421V159.441C49.2427 158.956 49.7752 158.592 50.4222 158.349C51.0693 158.093 51.7972 157.965 52.606 157.965ZM52.1611 164.84C52.9834 164.84 53.6507 164.624 54.1629 164.193C54.6752 163.748 54.9313 163.161 54.9313 162.434C54.9313 161.692 54.6752 161.106 54.1629 160.674C53.6507 160.243 52.9632 160.027 52.1005 160.027C51.2512 160.027 50.557 160.257 50.0178 160.715C49.4921 161.173 49.2292 161.753 49.2292 162.454C49.2292 163.141 49.4854 163.714 49.9976 164.172C50.5233 164.617 51.2445 164.84 52.1611 164.84Z" fill="#EFF4FF"/>
<path d="M44.5806 162.696C44.5806 163.788 44.1762 164.718 43.3674 165.487C42.572 166.242 41.4128 166.7 39.8895 166.862V169.126H38.2315V166.882C37.234 166.815 36.2904 166.633 35.4007 166.336C34.511 166.04 33.8033 165.662 33.2776 165.204L34.1875 163.162C34.6862 163.566 35.2928 163.91 36.0073 164.193C36.7217 164.462 37.4631 164.631 38.2315 164.698V160.654C37.2744 160.425 36.4723 160.176 35.8253 159.906C35.1917 159.623 34.6593 159.219 34.2279 158.693C33.7966 158.154 33.5809 157.446 33.5809 156.57C33.5809 155.478 33.9785 154.548 34.7739 153.779C35.5692 153.011 36.7217 152.553 38.2315 152.404V150.12H39.8895V152.364C40.6444 152.404 41.3791 152.533 42.0935 152.748C42.8214 152.964 43.455 153.247 43.9942 153.597L43.1652 155.64C42.1407 155.047 41.0488 154.683 39.8895 154.548V158.632C40.8601 158.861 41.6621 159.111 42.2957 159.38C42.9427 159.65 43.4819 160.054 43.9133 160.594C44.3581 161.119 44.5806 161.82 44.5806 162.696ZM36.1893 156.448C36.1893 156.893 36.3645 157.251 36.715 157.52C37.0655 157.79 37.571 158.019 38.2315 158.208V154.608C37.544 154.716 37.0318 154.932 36.6948 155.256C36.3578 155.579 36.1893 155.977 36.1893 156.448ZM39.8895 164.658C40.604 164.55 41.1297 164.341 41.4667 164.031C41.8172 163.721 41.9924 163.337 41.9924 162.878C41.9924 162.42 41.8104 162.056 41.4465 161.787C41.0825 161.503 40.5635 161.268 39.8895 161.079V164.658Z" fill="#EFF4FF"/>
<path d="M62.5228 137.04L59.8928 142.93C59.6795 143.423 59.4328 143.773 59.1528 143.98C58.8728 144.187 58.5361 144.29 58.1428 144.29C57.8895 144.29 57.6528 144.25 57.4328 144.17C57.2128 144.09 57.0228 143.97 56.8628 143.81L57.1928 143.28C57.4595 143.547 57.7795 143.68 58.1528 143.68C58.3928 143.68 58.5961 143.613 58.7628 143.48C58.9361 143.347 59.0961 143.12 59.2428 142.8L59.4728 142.29L57.1228 137.04H57.8628L59.8428 141.51L61.8228 137.04H62.5228Z" fill="#F6F6F6"/>
<path d="M54.1421 137C54.8287 137 55.3554 137.173 55.7221 137.52C56.0887 137.86 56.2721 138.367 56.2721 139.04V142.3H55.5921V141.48C55.4321 141.753 55.1954 141.967 54.8821 142.12C54.5754 142.273 54.2087 142.35 53.7821 142.35C53.1954 142.35 52.7287 142.21 52.3821 141.93C52.0354 141.65 51.8621 141.28 51.8621 140.82C51.8621 140.373 52.0221 140.013 52.3421 139.74C52.6687 139.467 53.1854 139.33 53.8921 139.33H55.5621V139.01C55.5621 138.557 55.4354 138.213 55.1821 137.98C54.9287 137.74 54.5587 137.62 54.0721 137.62C53.7387 137.62 53.4187 137.677 53.1121 137.79C52.8054 137.897 52.5421 138.047 52.3221 138.24L52.0021 137.71C52.2687 137.483 52.5887 137.31 52.9621 137.19C53.3354 137.063 53.7287 137 54.1421 137ZM53.8921 141.79C54.2921 141.79 54.6354 141.7 54.9221 141.52C55.2087 141.333 55.4221 141.067 55.5621 140.72V139.86H53.9121C53.0121 139.86 52.5621 140.173 52.5621 140.8C52.5621 141.107 52.6787 141.35 52.9121 141.53C53.1454 141.703 53.4721 141.79 53.8921 141.79Z" fill="#F6F6F6"/>
<path d="M50.3246 134.88V142.3H49.6446V141.26C49.4313 141.613 49.148 141.883 48.7946 142.07C48.448 142.257 48.0546 142.35 47.6146 142.35C47.1213 142.35 46.6746 142.237 46.2746 142.01C45.8746 141.783 45.5613 141.467 45.3346 141.06C45.108 140.653 44.9946 140.19 44.9946 139.67C44.9946 139.15 45.108 138.687 45.3346 138.28C45.5613 137.873 45.8746 137.56 46.2746 137.34C46.6746 137.113 47.1213 137 47.6146 137C48.0413 137 48.4246 137.09 48.7646 137.27C49.1113 137.443 49.3946 137.7 49.6146 138.04V134.88H50.3246ZM47.6746 141.72C48.0413 141.72 48.3713 141.637 48.6646 141.47C48.9646 141.297 49.198 141.053 49.3646 140.74C49.538 140.427 49.6246 140.07 49.6246 139.67C49.6246 139.27 49.538 138.913 49.3646 138.6C49.198 138.287 48.9646 138.047 48.6646 137.88C48.3713 137.707 48.0413 137.62 47.6746 137.62C47.3013 137.62 46.9646 137.707 46.6646 137.88C46.3713 138.047 46.138 138.287 45.9646 138.6C45.798 138.913 45.7146 139.27 45.7146 139.67C45.7146 140.07 45.798 140.427 45.9646 140.74C46.138 141.053 46.3713 141.297 46.6646 141.47C46.9646 141.637 47.3013 141.72 47.6746 141.72Z" fill="#F6F6F6"/>
<path d="M41.4051 142.35C40.8984 142.35 40.4418 142.237 40.0351 142.01C39.6284 141.777 39.3084 141.457 39.0751 141.05C38.8418 140.643 38.7251 140.183 38.7251 139.67C38.7251 139.157 38.8418 138.697 39.0751 138.29C39.3084 137.883 39.6284 137.567 40.0351 137.34C40.4418 137.113 40.8984 137 41.4051 137C41.9118 137 42.3684 137.113 42.7751 137.34C43.1818 137.567 43.4984 137.883 43.7251 138.29C43.9584 138.697 44.0751 139.157 44.0751 139.67C44.0751 140.183 43.9584 140.643 43.7251 141.05C43.4984 141.457 43.1818 141.777 42.7751 142.01C42.3684 142.237 41.9118 142.35 41.4051 142.35ZM41.4051 141.72C41.7784 141.72 42.1118 141.637 42.4051 141.47C42.7051 141.297 42.9384 141.053 43.1051 140.74C43.2718 140.427 43.3551 140.07 43.3551 139.67C43.3551 139.27 43.2718 138.913 43.1051 138.6C42.9384 138.287 42.7051 138.047 42.4051 137.88C42.1118 137.707 41.7784 137.62 41.4051 137.62C41.0318 137.62 40.6951 137.707 40.3951 137.88C40.1018 138.047 39.8684 138.287 39.6951 138.6C39.5284 138.913 39.4451 139.27 39.4451 139.67C39.4451 140.07 39.5284 140.427 39.6951 140.74C39.8684 141.053 40.1018 141.297 40.3951 141.47C40.6951 141.637 41.0318 141.72 41.4051 141.72Z" fill="#F6F6F6"/>
<path d="M35.5699 135.94H33.1099V135.3H38.7699V135.94H36.3099V142.3H35.5699V135.94Z" fill="#F6F6F6"/>
<path d="M144.712 154.617C144.212 154.617 143.808 154.44 143.502 154.087C143.195 153.734 143.042 153.27 143.042 152.697C143.042 152.124 143.195 151.66 143.502 151.307C143.808 150.954 144.212 150.777 144.712 150.777C145.212 150.777 145.615 150.954 145.922 151.307C146.235 151.654 146.392 152.117 146.392 152.697C146.392 153.277 146.235 153.744 145.922 154.097C145.615 154.444 145.212 154.617 144.712 154.617ZM148.912 150.847H149.892L145.112 157.847H144.132L148.912 150.847ZM144.712 153.917C144.985 153.917 145.195 153.81 145.342 153.597C145.495 153.384 145.572 153.084 145.572 152.697C145.572 152.31 145.495 152.01 145.342 151.797C145.195 151.584 144.985 151.477 144.712 151.477C144.452 151.477 144.242 151.587 144.082 151.807C143.928 152.02 143.852 152.317 143.852 152.697C143.852 153.077 143.928 153.377 144.082 153.597C144.242 153.81 144.452 153.917 144.712 153.917ZM149.302 157.917C148.802 157.917 148.398 157.74 148.092 157.387C147.785 157.034 147.632 156.57 147.632 155.997C147.632 155.424 147.785 154.96 148.092 154.607C148.398 154.254 148.802 154.077 149.302 154.077C149.802 154.077 150.205 154.254 150.512 154.607C150.825 154.96 150.982 155.424 150.982 155.997C150.982 156.57 150.825 157.034 150.512 157.387C150.205 157.74 149.802 157.917 149.302 157.917ZM149.302 157.217C149.568 157.217 149.778 157.11 149.932 156.897C150.085 156.677 150.162 156.377 150.162 155.997C150.162 155.617 150.085 155.32 149.932 155.107C149.778 154.887 149.568 154.777 149.302 154.777C149.035 154.777 148.825 154.884 148.672 155.097C148.518 155.31 148.442 155.61 148.442 155.997C148.442 156.384 148.518 156.684 148.672 156.897C148.825 157.11 149.035 157.217 149.302 157.217Z" fill="#F6F6F6"/>
<path d="M140.409 153.737C141.056 153.817 141.549 154.037 141.889 154.397C142.229 154.757 142.399 155.207 142.399 155.747C142.399 156.154 142.296 156.524 142.089 156.857C141.882 157.19 141.569 157.457 141.149 157.657C140.736 157.85 140.229 157.947 139.629 157.947C139.129 157.947 138.646 157.877 138.179 157.737C137.719 157.59 137.326 157.39 136.999 157.137L137.559 156.127C137.812 156.34 138.119 156.51 138.479 156.637C138.846 156.757 139.222 156.817 139.609 156.817C140.069 156.817 140.429 156.724 140.689 156.537C140.956 156.344 141.089 156.084 141.089 155.757C141.089 155.43 140.962 155.177 140.709 154.997C140.462 154.81 140.082 154.717 139.569 154.717H138.929V153.827L140.519 151.937H137.339V150.847H142.109V151.717L140.409 153.737Z" fill="#F6F6F6"/>
<path d="M135.67 157.917C135.443 157.917 135.25 157.84 135.09 157.687C134.93 157.527 134.85 157.327 134.85 157.087C134.85 156.84 134.927 156.64 135.08 156.487C135.24 156.334 135.437 156.257 135.67 156.257C135.903 156.257 136.097 156.334 136.25 156.487C136.41 156.64 136.49 156.84 136.49 157.087C136.49 157.327 136.41 157.527 136.25 157.687C136.09 157.84 135.897 157.917 135.67 157.917Z" fill="#F6F6F6"/>
<path d="M131.24 153.557C132.227 153.557 132.957 153.75 133.43 154.137C133.904 154.517 134.14 155.037 134.14 155.697C134.14 156.117 134.037 156.497 133.83 156.837C133.624 157.177 133.314 157.447 132.9 157.647C132.487 157.847 131.977 157.947 131.37 157.947C130.87 157.947 130.387 157.877 129.92 157.737C129.454 157.59 129.06 157.39 128.74 157.137L129.29 156.127C129.55 156.34 129.86 156.51 130.22 156.637C130.587 156.757 130.964 156.817 131.35 156.817C131.81 156.817 132.17 156.724 132.43 156.537C132.697 156.344 132.83 156.08 132.83 155.747C132.83 155.387 132.687 155.117 132.4 154.937C132.12 154.75 131.637 154.657 130.95 154.657H129.26L129.62 150.847H133.73V151.937H130.72L130.57 153.557H131.24Z" fill="#F6F6F6"/>
<path d="M167.23 162.05C164.729 162.393 162.192 162.393 159.69 162.05C158.603 161.893 157.596 161.388 156.819 160.611C156.042 159.835 155.537 158.827 155.38 157.74C155.016 155.163 155.016 152.547 155.38 149.97C155.537 148.883 156.042 147.875 156.819 147.098C157.596 146.322 158.603 145.817 159.69 145.66C162.267 145.296 164.883 145.296 167.46 145.66C168.548 145.817 169.555 146.322 170.332 147.098C171.108 147.875 171.613 148.883 171.77 149.97C172.113 152.472 172.113 155.008 171.77 157.51C171.616 158.66 171.088 159.727 170.268 160.547C169.447 161.368 168.38 161.896 167.23 162.05Z" fill="#282828"/>
<path d="M163.567 151.302C163.604 151.301 163.641 151.307 163.676 151.321C163.71 151.335 163.741 151.356 163.767 151.382L165.677 153.382C165.715 153.42 165.741 153.469 165.751 153.522C165.761 153.575 165.755 153.63 165.733 153.68C165.712 153.729 165.676 153.771 165.63 153.8C165.585 153.829 165.531 153.844 165.477 153.842H164.477V155.932C164.477 156.054 164.429 156.171 164.343 156.257C164.256 156.343 164.139 156.392 164.017 156.392H163.107C162.987 156.389 162.873 156.34 162.789 156.254C162.704 156.168 162.657 156.052 162.657 155.932V153.842H161.657C161.603 153.844 161.55 153.829 161.505 153.8C161.459 153.771 161.423 153.729 161.402 153.68C161.38 153.63 161.374 153.575 161.384 153.522C161.394 153.469 161.419 153.42 161.457 153.382L163.367 151.382C163.393 151.356 163.425 151.335 163.459 151.321C163.494 151.307 163.53 151.301 163.567 151.302Z" fill="white"/>
<path d="M36.6034 106.831C37.1697 106.831 37.6182 106.996 37.949 107.327C38.2854 107.652 38.4536 108.131 38.4536 108.765V111.33H37.6463V108.857C37.6463 108.426 37.5425 108.1 37.3351 107.882C37.1276 107.663 36.8305 107.554 36.4436 107.554C36.0063 107.554 35.6615 107.683 35.4092 107.941C35.1569 108.193 35.0307 108.557 35.0307 109.034V111.33H34.2234V106.873H34.9971V107.545C35.1597 107.316 35.3784 107.139 35.6531 107.016C35.9334 106.892 36.2502 106.831 36.6034 106.831Z" fill="#484848"/>
<path d="M30.8202 106.831C31.437 106.831 31.9079 106.982 32.2331 107.285C32.5639 107.587 32.7293 108.039 32.7293 108.639V111.33H31.964V110.741C31.8294 110.949 31.636 111.108 31.3837 111.221C31.137 111.327 30.8427 111.38 30.5007 111.38C30.0017 111.38 29.6008 111.26 29.298 111.019C29.0009 110.778 28.8523 110.461 28.8523 110.068C28.8523 109.676 28.9953 109.362 29.2812 109.126C29.5671 108.885 30.0213 108.765 30.6436 108.765H31.9219V108.605C31.9219 108.257 31.821 107.991 31.6192 107.806C31.4173 107.621 31.1202 107.529 30.7277 107.529C30.4642 107.529 30.2063 107.573 29.954 107.663C29.7017 107.747 29.4887 107.862 29.3148 108.008L28.9784 107.402C29.2083 107.217 29.483 107.077 29.8026 106.982C30.1222 106.881 30.4614 106.831 30.8202 106.831ZM30.6352 110.758C30.9436 110.758 31.2099 110.691 31.4342 110.556C31.6584 110.416 31.821 110.22 31.9219 109.967V109.345H30.6773C29.9933 109.345 29.6512 109.575 29.6512 110.035C29.6512 110.259 29.7381 110.436 29.912 110.565C30.0858 110.694 30.3268 110.758 30.6352 110.758Z" fill="#484848"/>
<path d="M25.7601 111.397C25.4069 111.397 25.0789 111.324 24.7761 111.178C24.4733 111.027 24.2295 110.817 24.0444 110.548L24.5322 109.976C24.8574 110.441 25.2667 110.674 25.7601 110.674C26.0909 110.674 26.3404 110.573 26.5086 110.371C26.6824 110.169 26.7693 109.872 26.7693 109.48V106.175H24.6415V105.443H27.6019V109.438C27.6019 110.088 27.4449 110.579 27.1309 110.909C26.8225 111.235 26.3656 111.397 25.7601 111.397Z" fill="#484848"/>
<path d="M72.4269 106.83C72.8586 106.83 73.2455 106.926 73.5875 107.116C73.9295 107.307 74.1958 107.573 74.3865 107.915C74.5827 108.257 74.6808 108.653 74.6808 109.101C74.6808 109.55 74.5827 109.948 74.3865 110.295C74.1958 110.637 73.9295 110.904 73.5875 111.094C73.2455 111.285 72.8586 111.38 72.4269 111.38C72.0961 111.38 71.7934 111.316 71.5187 111.187C71.2439 111.058 71.0169 110.87 70.8374 110.623V111.33H70.0637V105.09H70.8711V107.545C71.0505 107.31 71.2748 107.133 71.5439 107.015C71.813 106.892 72.1074 106.83 72.4269 106.83ZM72.3597 110.674C72.6456 110.674 72.9007 110.609 73.125 110.48C73.3548 110.346 73.5342 110.161 73.6632 109.925C73.7978 109.684 73.865 109.41 73.865 109.101C73.865 108.793 73.7978 108.521 73.6632 108.285C73.5342 108.044 73.3548 107.859 73.125 107.73C72.9007 107.601 72.6456 107.537 72.3597 107.537C72.0793 107.537 71.8242 107.601 71.5943 107.73C71.3645 107.859 71.1851 108.044 71.0561 108.285C70.9271 108.521 70.8627 108.793 70.8627 109.101C70.8627 109.41 70.9271 109.684 71.0561 109.925C71.1851 110.161 71.3645 110.346 71.5943 110.48C71.8242 110.609 72.0793 110.674 72.3597 110.674Z" fill="#484848"/>
<path d="M68.9427 109.126C68.9427 109.188 68.9371 109.269 68.9259 109.37H65.3096C65.36 109.763 65.531 110.08 65.8226 110.321C66.1197 110.556 66.487 110.674 66.9243 110.674C67.4569 110.674 67.8858 110.495 68.211 110.136L68.6567 110.657C68.4549 110.893 68.2026 111.072 67.8998 111.195C67.6027 111.319 67.2691 111.38 66.899 111.38C66.4281 111.38 66.0104 111.285 65.646 111.094C65.2815 110.898 64.9984 110.626 64.7965 110.279C64.6003 109.931 64.5022 109.539 64.5022 109.101C64.5022 108.67 64.5975 108.28 64.7881 107.932C64.9844 107.585 65.2507 107.316 65.5871 107.125C65.9291 106.929 66.3132 106.831 66.7393 106.831C67.1654 106.831 67.5438 106.929 67.8746 107.125C68.211 107.316 68.4717 107.585 68.6567 107.932C68.8474 108.28 68.9427 108.678 68.9427 109.126ZM66.7393 107.512C66.3524 107.512 66.0272 107.63 65.7637 107.865C65.5058 108.1 65.3544 108.409 65.3096 108.79H68.169C68.1241 108.414 67.9699 108.109 67.7064 107.873C67.4485 107.632 67.1261 107.512 66.7393 107.512Z" fill="#484848"/>
<path d="M60.6743 106.175V108.227H63.6262V108.95H60.6743V111.33H59.8333V105.443H63.9878V106.175H60.6743Z" fill="#484848"/>
<path d="M108.377 107.621C108.518 107.363 108.725 107.167 109 107.032C109.275 106.898 109.608 106.831 110.001 106.831V107.613C109.956 107.607 109.894 107.604 109.816 107.604C109.378 107.604 109.033 107.736 108.781 108C108.534 108.257 108.411 108.628 108.411 109.11V111.33H107.604V106.873H108.377V107.621Z" fill="#484848"/>
<path d="M104.201 106.831C104.817 106.831 105.288 106.982 105.613 107.285C105.944 107.587 106.11 108.039 106.11 108.639V111.33H105.344V110.741C105.21 110.949 105.016 111.108 104.764 111.221C104.517 111.327 104.223 111.38 103.881 111.38C103.382 111.38 102.981 111.26 102.678 111.019C102.381 110.778 102.233 110.461 102.233 110.068C102.233 109.676 102.376 109.362 102.662 109.126C102.948 108.885 103.402 108.765 104.024 108.765H105.302V108.605C105.302 108.257 105.201 107.991 105 107.806C104.798 107.621 104.501 107.529 104.108 107.529C103.845 107.529 103.587 107.573 103.334 107.663C103.082 107.747 102.869 107.862 102.695 108.008L102.359 107.402C102.589 107.217 102.863 107.077 103.183 106.982C103.503 106.881 103.842 106.831 104.201 106.831ZM104.016 110.758C104.324 110.758 104.59 110.691 104.815 110.556C105.039 110.416 105.201 110.22 105.302 109.967V109.345H104.058C103.374 109.345 103.032 109.575 103.032 110.035C103.032 110.259 103.119 110.436 103.292 110.565C103.466 110.694 103.707 110.758 104.016 110.758Z" fill="#484848"/>
<path d="M100.121 111.33L100.113 107.041L97.985 110.615H97.5982L95.4704 107.066V111.33H94.6631V105.443H95.3527L97.8084 109.581L100.231 105.443H100.92L100.929 111.33H100.121Z" fill="#484848"/>
<path d="M142.042 107.621C142.182 107.363 142.389 107.167 142.664 107.032C142.939 106.898 143.272 106.831 143.665 106.831V107.613C143.62 107.607 143.558 107.604 143.48 107.604C143.042 107.604 142.698 107.736 142.445 108C142.199 108.257 142.075 108.628 142.075 109.11V111.33H141.268V106.873H142.042V107.621Z" fill="#484848"/>
<path d="M137.898 106.831C138.33 106.831 138.717 106.926 139.059 107.117C139.401 107.307 139.667 107.573 139.858 107.915C140.054 108.257 140.152 108.653 140.152 109.101C140.152 109.55 140.054 109.948 139.858 110.295C139.667 110.637 139.401 110.904 139.059 111.094C138.717 111.285 138.33 111.38 137.898 111.38C137.579 111.38 137.284 111.319 137.015 111.195C136.752 111.072 136.528 110.893 136.343 110.657V112.961H135.535V106.873H136.309V107.579C136.488 107.332 136.715 107.147 136.99 107.024C137.265 106.895 137.568 106.831 137.898 106.831ZM137.831 110.674C138.117 110.674 138.372 110.609 138.596 110.481C138.826 110.346 139.006 110.161 139.135 109.925C139.269 109.684 139.336 109.41 139.336 109.101C139.336 108.793 139.269 108.521 139.135 108.285C139.006 108.044 138.826 107.859 138.596 107.73C138.372 107.601 138.117 107.537 137.831 107.537C137.551 107.537 137.296 107.604 137.066 107.739C136.842 107.868 136.662 108.05 136.528 108.285C136.399 108.521 136.334 108.793 136.334 109.101C136.334 109.41 136.399 109.684 136.528 109.925C136.656 110.161 136.836 110.346 137.066 110.481C137.296 110.609 137.551 110.674 137.831 110.674Z" fill="#484848"/>
<path d="M133.244 109.858H130.116L129.468 111.33H128.602L131.268 105.443H132.1L134.775 111.33H133.892L133.244 109.858ZM132.95 109.185L131.68 106.301L130.41 109.185H132.95Z" fill="#484848"/>
<path d="M181.677 106.805L179.634 111.607C179.426 112.129 179.168 112.496 178.86 112.709C178.557 112.922 178.19 113.029 177.758 113.029C177.523 113.029 177.29 112.992 177.06 112.919C176.83 112.846 176.642 112.745 176.497 112.616L176.976 111.683C177.077 111.773 177.192 111.843 177.321 111.893C177.455 111.944 177.587 111.969 177.716 111.969C177.895 111.969 178.041 111.924 178.153 111.834C178.265 111.75 178.366 111.607 178.456 111.405L178.473 111.363L176.513 106.805H177.867L179.137 109.875L180.416 106.805H181.677Z" fill="#282828"/>
<path d="M173.903 106.738C174.604 106.738 175.142 106.906 175.517 107.243C175.893 107.573 176.081 108.075 176.081 108.748V111.33H174.853V110.766C174.606 111.187 174.147 111.397 173.474 111.397C173.126 111.397 172.823 111.338 172.566 111.221C172.313 111.103 172.12 110.94 171.985 110.733C171.851 110.525 171.783 110.29 171.783 110.026C171.783 109.606 171.94 109.275 172.254 109.034C172.574 108.793 173.065 108.672 173.726 108.672H174.769C174.769 108.386 174.682 108.168 174.508 108.016C174.334 107.859 174.074 107.781 173.726 107.781C173.485 107.781 173.247 107.82 173.011 107.899C172.781 107.972 172.585 108.072 172.423 108.201L171.952 107.285C172.198 107.111 172.493 106.976 172.835 106.881C173.182 106.786 173.538 106.738 173.903 106.738ZM173.802 110.514C174.026 110.514 174.225 110.464 174.399 110.363C174.573 110.256 174.696 110.102 174.769 109.9V109.438H173.869C173.331 109.438 173.062 109.614 173.062 109.967C173.062 110.136 173.126 110.27 173.255 110.371C173.39 110.466 173.572 110.514 173.802 110.514Z" fill="#282828"/>
<path d="M169.495 111.33L169.487 107.798L167.754 110.708H167.141L165.417 107.873V111.33H164.138V105.443H165.265L167.469 109.101L169.638 105.443H170.757L170.774 111.33H169.495Z" fill="#282828"/>
<path d="M172.42 101.59C173.58 101.59 174.52 100.65 174.52 99.4899C174.52 98.3301 173.58 97.3899 172.42 97.3899C171.26 97.3899 170.32 98.3301 170.32 99.4899C170.32 100.65 171.26 101.59 172.42 101.59Z" fill="#F85C3A"/>
<defs>
<linearGradient id="paint0_linear_14_1321" x1="106.25" y1="155" x2="106.25" y2="33.1499" gradientUnits="userSpaceOnUse">
<stop stop-color="#F6F6F6" stop-opacity="0"/>
<stop offset="0.21" stop-color="#F6F6F6" stop-opacity="0.19"/>
<stop offset="0.67" stop-color="#F85C3A" stop-opacity="0.65"/>
<stop offset="1" stop-color="#F85C3A"/>
</linearGradient>
</defs>
</svg>
