<svg width="206" height="63" viewBox="0 0 206 63" fill="none" xmlns="http://www.w3.org/2000/svg">
<rect x="0.469971" y="0.0576172" width="204.78" height="62.085" rx="16" fill="#F6F6F6"/>
<path d="M25.1401 46.3925C24.2039 46.3925 23.306 46.0206 22.644 45.3586C21.982 44.6966 21.6101 43.7987 21.6101 42.8625V19.9325C21.6101 18.9963 21.982 18.0984 22.644 17.4364C23.306 16.7744 24.2039 16.4025 25.1401 16.4025C25.6062 16.3985 26.0684 16.4869 26.5002 16.6625C26.9319 16.8381 27.3246 17.0975 27.6556 17.4257C27.9866 17.7539 28.2493 18.1444 28.4286 18.5746C28.6078 19.0049 28.7001 19.4664 28.7001 19.9325V42.8725C28.6988 43.3377 28.6056 43.7982 28.4257 44.2272C28.2458 44.6563 27.9829 45.0456 27.6521 45.3727C27.3212 45.6999 26.929 45.9584 26.4979 46.1334C26.0668 46.3084 25.6054 46.3964 25.1401 46.3925Z" fill="#C9C9C9"/>
<path d="M42.4402 46.3923C41.5039 46.3923 40.6061 46.0204 39.9441 45.3584C39.2821 44.6964 38.9102 43.7985 38.9102 42.8623V19.9323C38.9102 18.9961 39.2821 18.0983 39.9441 17.4362C40.6061 16.7742 41.5039 16.4023 42.4402 16.4023C43.3764 16.4023 44.2742 16.7742 44.9362 17.4362C45.5983 18.0983 45.9702 18.9961 45.9702 19.9323V42.8723C45.9675 43.8068 45.5944 44.7021 44.9327 45.362C44.271 46.0218 43.3746 46.3923 42.4402 46.3923Z" fill="#C9C9C9"/>
<path d="M63.2602 19.9323C63.2602 17.9828 61.6798 16.4023 59.7302 16.4023C57.7806 16.4023 56.2002 17.9828 56.2002 19.9323V42.8723C56.2002 44.8219 57.7806 46.4023 59.7302 46.4023C61.6798 46.4023 63.2602 44.8219 63.2602 42.8723V19.9323Z" fill="#C9C9C9"/>
<path d="M77.0202 46.3923C76.084 46.3923 75.1861 46.0204 74.5241 45.3584C73.8621 44.6964 73.4902 43.7985 73.4902 42.8623V19.9323C73.4902 18.9961 73.8621 18.0983 74.5241 17.4362C75.1861 16.7742 76.084 16.4023 77.0202 16.4023C77.9564 16.4023 78.8543 16.7742 79.5163 17.4362C80.1783 18.0983 80.5502 18.9961 80.5502 19.9323V42.8723C80.5476 43.8068 80.1745 44.7021 79.5128 45.362C78.8511 46.0218 77.9547 46.3923 77.0202 46.3923Z" fill="#C9C9C9"/>
<path d="M94.32 46.3923C93.3838 46.3923 92.4859 46.0204 91.8239 45.3584C91.1619 44.6964 90.79 43.7985 90.79 42.8623V19.9323C90.79 18.9961 91.1619 18.0983 91.8239 17.4362C92.4859 16.7742 93.3838 16.4023 94.32 16.4023C95.2563 16.4023 96.1541 16.7742 96.8161 17.4362C97.4781 18.0983 97.85 18.9961 97.85 19.9323V42.8723C97.8474 43.8068 97.4743 44.7021 96.8126 45.362C96.1509 46.0218 95.2545 46.3923 94.32 46.3923Z" fill="#C9C9C9"/>
<path d="M21.6101 34.3926V42.8626C21.6101 43.7988 21.982 44.6967 22.644 45.3587C23.306 46.0207 24.2039 46.3926 25.1401 46.3926C26.0763 46.3926 26.9742 46.0207 27.6362 45.3587C28.2982 44.6967 28.6701 43.7988 28.6701 42.8626V34.3926H21.6101Z" fill="#F85C3A"/>
<path d="M38.9102 25.6926V42.8726C38.9102 43.8088 39.2821 44.7067 39.9441 45.3687C40.6061 46.0307 41.5039 46.4026 42.4402 46.4026C43.3764 46.4026 44.2742 46.0307 44.9362 45.3687C45.5983 44.7067 45.9702 43.8088 45.9702 42.8726V25.6926H38.9102Z" fill="#F85C3A"/>
<path d="M56.2002 30.3926V42.8626C56.2002 43.7988 56.5721 44.6967 57.2341 45.3587C57.8961 46.0207 58.794 46.3926 59.7302 46.3926C60.6664 46.3926 61.5643 46.0207 62.2263 45.3587C62.8883 44.6967 63.2602 43.7988 63.2602 42.8626V30.3926H56.2002Z" fill="#F85C3A"/>
<path d="M73.4902 22.6326V42.8726C73.4902 43.8088 73.8621 44.7066 74.5241 45.3687C75.1861 46.0307 76.084 46.4026 77.0202 46.4026C77.9564 46.4026 78.8543 46.0307 79.5163 45.3687C80.1783 44.7066 80.5502 43.8088 80.5502 42.8726V22.6326H73.4902Z" fill="#F85C3A"/>
<path d="M94.32 46.3926C93.3838 46.3926 92.4859 46.0207 91.8239 45.3587C91.1619 44.6967 90.79 43.7988 90.79 42.8626V19.9326C90.79 18.9964 91.1619 18.0985 91.8239 17.4365C92.4859 16.7745 93.3838 16.4026 94.32 16.4026C95.2563 16.4026 96.1541 16.7745 96.8161 17.4365C97.4781 18.0985 97.85 18.9964 97.85 19.9326V42.8726C97.8474 43.8071 97.4743 44.7024 96.8126 45.3622C96.1509 46.0221 95.2545 46.3926 94.32 46.3926Z" fill="#F85C3A"/>
<path d="M180.61 42.0125H123.77C121.155 42.0125 118.647 40.9737 116.798 39.1246C114.949 37.2755 113.91 34.7675 113.91 32.1525C113.91 29.5375 114.949 27.0295 116.798 25.1804C118.647 23.3313 121.155 22.2925 123.77 22.2925H180.61C183.225 22.2925 185.733 23.3313 187.582 25.1804C189.431 27.0295 190.47 29.5375 190.47 32.1525C190.47 34.7675 189.431 37.2755 187.582 39.1246C185.733 40.9737 183.225 42.0125 180.61 42.0125Z" fill="#484848"/>
<path d="M177.442 30.7925C178.048 30.7925 178.534 30.9695 178.9 31.3235C179.266 31.6775 179.449 32.2025 179.449 32.8985V35.6525H178.324V33.0425C178.324 32.6225 178.225 32.3075 178.027 32.0975C177.829 31.8815 177.547 31.7735 177.181 31.7735C176.767 31.7735 176.44 31.8995 176.2 32.1515C175.96 32.3975 175.84 32.7545 175.84 33.2225V35.6525H174.715V30.8465H175.786V31.4675C175.972 31.2455 176.206 31.0775 176.488 30.9635C176.77 30.8495 177.088 30.7925 177.442 30.7925Z" fill="#F6F6F6"/>
<path d="M171.074 35.7155C170.588 35.7155 170.15 35.6105 169.76 35.4005C169.37 35.1905 169.064 34.8995 168.842 34.5275C168.626 34.1495 168.518 33.7235 168.518 33.2495C168.518 32.7755 168.626 32.3525 168.842 31.9805C169.064 31.6085 169.37 31.3175 169.76 31.1075C170.15 30.8975 170.588 30.7925 171.074 30.7925C171.566 30.7925 172.007 30.8975 172.397 31.1075C172.787 31.3175 173.09 31.6085 173.306 31.9805C173.528 32.3525 173.639 32.7755 173.639 33.2495C173.639 33.7235 173.528 34.1495 173.306 34.5275C173.09 34.8995 172.787 35.1905 172.397 35.4005C172.007 35.6105 171.566 35.7155 171.074 35.7155ZM171.074 34.7525C171.488 34.7525 171.83 34.6145 172.1 34.3385C172.37 34.0625 172.505 33.6995 172.505 33.2495C172.505 32.7995 172.37 32.4365 172.1 32.1605C171.83 31.8845 171.488 31.7465 171.074 31.7465C170.66 31.7465 170.318 31.8845 170.048 32.1605C169.784 32.4365 169.652 32.7995 169.652 33.2495C169.652 33.6995 169.784 34.0625 170.048 34.3385C170.318 34.6145 170.66 34.7525 171.074 34.7525Z" fill="#F6F6F6"/>
<path d="M166.313 30.8466H167.438V35.6526H166.313V30.8466ZM166.88 30.0546C166.676 30.0546 166.505 29.9916 166.367 29.8656C166.229 29.7336 166.16 29.5716 166.16 29.3796C166.16 29.1876 166.229 29.0286 166.367 28.9026C166.505 28.7706 166.676 28.7046 166.88 28.7046C167.084 28.7046 167.255 28.7676 167.393 28.8936C167.531 29.0136 167.6 29.1666 167.6 29.3526C167.6 29.5506 167.531 29.7186 167.393 29.8566C167.261 29.9886 167.09 30.0546 166.88 30.0546Z" fill="#F6F6F6"/>
<path d="M165.387 35.3917C165.255 35.4997 165.093 35.5807 164.901 35.6347C164.715 35.6887 164.517 35.7157 164.307 35.7157C163.779 35.7157 163.371 35.5777 163.083 35.3017C162.795 35.0257 162.651 34.6237 162.651 34.0957V31.7827H161.859V30.8827H162.651V29.7847H163.776V30.8827H165.063V31.7827H163.776V34.0687C163.776 34.3027 163.833 34.4827 163.947 34.6087C164.061 34.7287 164.226 34.7887 164.442 34.7887C164.694 34.7887 164.904 34.7227 165.072 34.5907L165.387 35.3917Z" fill="#F6F6F6"/>
<path d="M159.412 35.7155C158.914 35.7155 158.467 35.6105 158.071 35.4005C157.675 35.1905 157.366 34.8995 157.144 34.5275C156.922 34.1495 156.811 33.7235 156.811 33.2495C156.811 32.7755 156.922 32.3525 157.144 31.9805C157.366 31.6085 157.672 31.3175 158.062 31.1075C158.458 30.8975 158.908 30.7925 159.412 30.7925C159.886 30.7925 160.3 30.8885 160.654 31.0805C161.014 31.2725 161.284 31.5485 161.464 31.9085L160.6 32.4125C160.462 32.1905 160.288 32.0255 160.078 31.9175C159.874 31.8035 159.649 31.7465 159.403 31.7465C158.983 31.7465 158.635 31.8845 158.359 32.1605C158.083 32.4305 157.945 32.7935 157.945 33.2495C157.945 33.7055 158.08 34.0715 158.35 34.3475C158.626 34.6175 158.977 34.7525 159.403 34.7525C159.649 34.7525 159.874 34.6985 160.078 34.5905C160.288 34.4765 160.462 34.3085 160.6 34.0865L161.464 34.5905C161.278 34.9505 161.005 35.2295 160.645 35.4275C160.291 35.6195 159.88 35.7155 159.412 35.7155Z" fill="#F6F6F6"/>
<path d="M153.533 30.7925C154.241 30.7925 154.781 30.9635 155.153 31.3055C155.531 31.6415 155.72 32.1515 155.72 32.8355V35.6525H154.658V35.0675C154.52 35.2775 154.322 35.4395 154.064 35.5535C153.812 35.6615 153.506 35.7155 153.146 35.7155C152.786 35.7155 152.471 35.6555 152.201 35.5355C151.931 35.4095 151.721 35.2385 151.571 35.0225C151.427 34.8005 151.355 34.5515 151.355 34.2755C151.355 33.8435 151.514 33.4985 151.832 33.2405C152.156 32.9765 152.663 32.8445 153.353 32.8445H154.595V32.7725C154.595 32.4365 154.493 32.1785 154.289 31.9985C154.091 31.8185 153.794 31.7285 153.398 31.7285C153.128 31.7285 152.861 31.7705 152.597 31.8545C152.339 31.9385 152.12 32.0555 151.94 32.2055L151.499 31.3865C151.751 31.1945 152.054 31.0475 152.408 30.9455C152.762 30.8435 153.137 30.7925 153.533 30.7925ZM153.38 34.8965C153.662 34.8965 153.911 34.8335 154.127 34.7075C154.349 34.5755 154.505 34.3895 154.595 34.1495V33.5915H153.434C152.786 33.5915 152.462 33.8045 152.462 34.2305C152.462 34.4345 152.543 34.5965 152.705 34.7165C152.867 34.8365 153.092 34.8965 153.38 34.8965Z" fill="#F6F6F6"/>
<path d="M148.55 35.7155C148.16 35.7155 147.779 35.6645 147.407 35.5625C147.035 35.4605 146.738 35.3315 146.516 35.1755L146.948 34.3205C147.164 34.4645 147.422 34.5815 147.722 34.6715C148.028 34.7555 148.328 34.7975 148.622 34.7975C149.294 34.7975 149.63 34.6205 149.63 34.2665C149.63 34.0985 149.543 33.9815 149.369 33.9155C149.201 33.8495 148.928 33.7865 148.55 33.7265C148.154 33.6665 147.83 33.5975 147.578 33.5195C147.332 33.4415 147.116 33.3065 146.93 33.1145C146.75 32.9165 146.66 32.6435 146.66 32.2955C146.66 31.8395 146.849 31.4765 147.227 31.2065C147.611 30.9305 148.127 30.7925 148.775 30.7925C149.105 30.7925 149.435 30.8315 149.765 30.9095C150.095 30.9815 150.365 31.0805 150.575 31.2065L150.143 32.0615C149.735 31.8215 149.276 31.7015 148.766 31.7015C148.436 31.7015 148.184 31.7525 148.01 31.8545C147.842 31.9505 147.758 32.0795 147.758 32.2415C147.758 32.4215 147.848 32.5505 148.028 32.6285C148.214 32.7005 148.499 32.7695 148.883 32.8355C149.267 32.8955 149.582 32.9645 149.828 33.0425C150.074 33.1205 150.284 33.2525 150.458 33.4385C150.638 33.6245 150.728 33.8885 150.728 34.2305C150.728 34.6805 150.533 35.0405 150.143 35.3105C149.753 35.5805 149.222 35.7155 148.55 35.7155Z" fill="#F6F6F6"/>
<path d="M143.631 30.7925C144.237 30.7925 144.723 30.9695 145.089 31.3235C145.455 31.6775 145.638 32.2025 145.638 32.8985V35.6525H144.513V33.0425C144.513 32.6225 144.414 32.3075 144.216 32.0975C144.018 31.8815 143.736 31.7735 143.37 31.7735C142.956 31.7735 142.629 31.8995 142.389 32.1515C142.149 32.3975 142.029 32.7545 142.029 33.2225V35.6525H140.904V30.8465H141.975V31.4675C142.161 31.2455 142.395 31.0775 142.677 30.9635C142.959 30.8495 143.277 30.7925 143.631 30.7925Z" fill="#F6F6F6"/>
<path d="M137.273 30.7925C137.981 30.7925 138.521 30.9635 138.893 31.3055C139.271 31.6415 139.46 32.1515 139.46 32.8355V35.6525H138.398V35.0675C138.26 35.2775 138.062 35.4395 137.804 35.5535C137.552 35.6615 137.246 35.7155 136.886 35.7155C136.526 35.7155 136.211 35.6555 135.941 35.5355C135.671 35.4095 135.461 35.2385 135.311 35.0225C135.167 34.8005 135.095 34.5515 135.095 34.2755C135.095 33.8435 135.254 33.4985 135.572 33.2405C135.896 32.9765 136.403 32.8445 137.093 32.8445H138.335V32.7725C138.335 32.4365 138.233 32.1785 138.029 31.9985C137.831 31.8185 137.534 31.7285 137.138 31.7285C136.868 31.7285 136.601 31.7705 136.337 31.8545C136.079 31.9385 135.86 32.0555 135.68 32.2055L135.239 31.3865C135.491 31.1945 135.794 31.0475 136.148 30.9455C136.502 30.8435 136.877 30.7925 137.273 30.7925ZM137.12 34.8965C137.402 34.8965 137.651 34.8335 137.867 34.7075C138.089 34.5755 138.245 34.3895 138.335 34.1495V33.5915H137.174C136.526 33.5915 136.202 33.8045 136.202 34.2305C136.202 34.4345 136.283 34.5965 136.445 34.7165C136.607 34.8365 136.832 34.8965 137.12 34.8965Z" fill="#F6F6F6"/>
<path d="M132.799 31.5485C133.123 31.0445 133.693 30.7925 134.509 30.7925V31.8635C134.413 31.8455 134.326 31.8365 134.248 31.8365C133.81 31.8365 133.468 31.9655 133.222 32.2235C132.976 32.4755 132.853 32.8415 132.853 33.3215V35.6525H131.728V30.8465H132.799V31.5485Z" fill="#F6F6F6"/>
<path d="M127.814 30.3425H125.726V29.3525H131.072V30.3425H128.984V35.6525H127.814V30.3425Z" fill="#F6F6F6"/>
</svg>
