<svg width="205" height="284" viewBox="0 0 205 284" fill="none" xmlns="http://www.w3.org/2000/svg">
<rect x="0.220215" y="0.198242" width="204.78" height="283.34" rx="16" fill="#F6F6F6"/>
<path d="M79.521 45.9252C78.8957 45.9252 78.2844 45.8505 77.687 45.7012C77.0897 45.5425 76.6137 45.3465 76.259 45.1132L76.987 43.5452C77.323 43.7599 77.729 43.9372 78.205 44.0772C78.681 44.2079 79.1477 44.2732 79.605 44.2732C80.529 44.2732 80.991 44.0445 80.991 43.5872C80.991 43.3725 80.865 43.2185 80.613 43.1252C80.361 43.0319 79.9737 42.9525 79.451 42.8872C78.835 42.7939 78.3264 42.6865 77.925 42.5652C77.5237 42.4439 77.1737 42.2292 76.875 41.9212C76.5857 41.6132 76.441 41.1745 76.441 40.6052C76.441 40.1292 76.5764 39.7092 76.847 39.3452C77.127 38.9719 77.5284 38.6825 78.051 38.4772C78.583 38.2719 79.2084 38.1692 79.927 38.1692C80.459 38.1692 80.9864 38.2299 81.509 38.3512C82.041 38.4632 82.4797 38.6219 82.825 38.8272L82.097 40.3812C81.4344 40.0079 80.711 39.8212 79.927 39.8212C79.4604 39.8212 79.1104 39.8865 78.877 40.0172C78.6437 40.1479 78.527 40.3159 78.527 40.5212C78.527 40.7545 78.653 40.9179 78.905 41.0112C79.157 41.1045 79.5584 41.1932 80.109 41.2772C80.725 41.3799 81.229 41.4919 81.621 41.6132C82.013 41.7252 82.3537 41.9352 82.643 42.2432C82.9324 42.5512 83.077 42.9805 83.077 43.5312C83.077 43.9979 82.937 44.4132 82.657 44.7772C82.377 45.1412 81.9664 45.4259 81.425 45.6312C80.893 45.8272 80.2584 45.9252 79.521 45.9252Z" fill="#282828"/>
<path d="M74.9543 38.2812V44.5532C74.9543 45.9345 74.5949 46.9612 73.8763 47.6332C73.1576 48.3052 72.1076 48.6412 70.7263 48.6412C69.9983 48.6412 69.3076 48.5525 68.6543 48.3752C68.0009 48.1979 67.4596 47.9412 67.0303 47.6052L67.8983 46.0372C68.2156 46.2985 68.6169 46.5039 69.1023 46.6532C69.5876 46.8119 70.0729 46.8912 70.5583 46.8912C71.3143 46.8912 71.8696 46.7185 72.2243 46.3732C72.5883 46.0372 72.7703 45.5239 72.7703 44.8332V44.5112C72.2009 45.1365 71.4076 45.4492 70.3903 45.4492C69.6996 45.4492 69.0649 45.2999 68.4863 45.0012C67.9169 44.6932 67.4643 44.2639 67.1283 43.7132C66.7923 43.1625 66.6243 42.5279 66.6243 41.8092C66.6243 41.0905 66.7923 40.4559 67.1283 39.9052C67.4643 39.3545 67.9169 38.9299 68.4863 38.6312C69.0649 38.3232 69.6996 38.1692 70.3903 38.1692C71.4823 38.1692 72.3129 38.5285 72.8823 39.2472V38.2812H74.9543ZM70.8243 43.6572C71.4029 43.6572 71.8743 43.4892 72.2383 43.1532C72.6116 42.8079 72.7983 42.3599 72.7983 41.8092C72.7983 41.2585 72.6116 40.8152 72.2383 40.4792C71.8743 40.1339 71.4029 39.9612 70.8243 39.9612C70.2456 39.9612 69.7696 40.1339 69.3963 40.4792C69.0229 40.8152 68.8363 41.2585 68.8363 41.8092C68.8363 42.3599 69.0229 42.8079 69.3963 43.1532C69.7696 43.4892 70.2456 43.6572 70.8243 43.6572Z" fill="#282828"/>
<path d="M62.0006 38.1692C62.9339 38.1692 63.6853 38.4492 64.2546 39.0092C64.8333 39.5692 65.1226 40.3999 65.1226 41.5012V45.8132H62.9386V41.8372C62.9386 41.2399 62.8079 40.7965 62.5466 40.5072C62.2853 40.2085 61.9073 40.0592 61.4126 40.0592C60.8619 40.0592 60.4233 40.2319 60.0966 40.5772C59.7699 40.9132 59.6066 41.4172 59.6066 42.0892V45.8132H57.4226V38.2812H59.5086V39.1632C59.7979 38.8459 60.1573 38.6032 60.5866 38.4352C61.0159 38.2579 61.4873 38.1692 62.0006 38.1692Z" fill="#282828"/>
<path d="M53.2118 38.2812H55.3958V45.8132H53.2118V38.2812ZM54.3038 37.2312C53.9025 37.2312 53.5758 37.1145 53.3238 36.8812C53.0718 36.6478 52.9458 36.3585 52.9458 36.0132C52.9458 35.6678 53.0718 35.3785 53.3238 35.1452C53.5758 34.9118 53.9025 34.7952 54.3038 34.7952C54.7051 34.7952 55.0318 34.9072 55.2838 35.1312C55.5358 35.3552 55.6618 35.6352 55.6618 35.9712C55.6618 36.3352 55.5358 36.6385 55.2838 36.8812C55.0318 37.1145 54.7051 37.2312 54.3038 37.2312Z" fill="#282828"/>
<path d="M51.9857 45.4492C51.771 45.6079 51.505 45.7292 51.1877 45.8132C50.8797 45.8879 50.553 45.9252 50.2077 45.9252C49.3117 45.9252 48.6164 45.6966 48.1217 45.2392C47.6364 44.7819 47.3937 44.1099 47.3937 43.2232V40.1292H46.2317V38.4492H47.3937V36.6152H49.5777V38.4492H51.4537V40.1292H49.5777V43.1952C49.5777 43.5126 49.657 43.7599 49.8157 43.9372C49.9837 44.1052 50.217 44.1892 50.5157 44.1892C50.861 44.1892 51.155 44.0959 51.3977 43.9092L51.9857 45.4492Z" fill="#282828"/>
<path d="M46.0658 45.4492C45.8511 45.6079 45.5851 45.7292 45.2678 45.8132C44.9598 45.8879 44.6331 45.9252 44.2878 45.9252C43.3918 45.9252 42.6964 45.6966 42.2018 45.2392C41.7164 44.7819 41.4738 44.1099 41.4738 43.2232V40.1292H40.3118V38.4492H41.4738V36.6152H43.6578V38.4492H45.5338V40.1292H43.6578V43.1952C43.6578 43.5126 43.7371 43.7599 43.8958 43.9372C44.0638 44.1052 44.2971 44.1892 44.5958 44.1892C44.9411 44.1892 45.2351 44.0959 45.4778 43.9092L46.0658 45.4492Z" fill="#282828"/>
<path d="M39.7537 42.0752C39.7537 42.1032 39.7397 42.2992 39.7117 42.6632H34.0137C34.1163 43.1299 34.359 43.4985 34.7417 43.7692C35.1243 44.0399 35.6003 44.1752 36.1697 44.1752C36.5617 44.1752 36.907 44.1192 37.2057 44.0072C37.5137 43.8859 37.7983 43.6992 38.0597 43.4472L39.2217 44.7072C38.5123 45.5192 37.4763 45.9252 36.1137 45.9252C35.2643 45.9252 34.513 45.7619 33.8597 45.4352C33.2063 45.0992 32.7023 44.6372 32.3477 44.0492C31.993 43.4612 31.8157 42.7939 31.8157 42.0472C31.8157 41.3099 31.9883 40.6472 32.3337 40.0592C32.6883 39.4619 33.169 38.9999 33.7757 38.6732C34.3917 38.3372 35.0777 38.1692 35.8337 38.1692C36.571 38.1692 37.2383 38.3279 37.8357 38.6452C38.433 38.9625 38.8997 39.4199 39.2357 40.0172C39.581 40.6052 39.7537 41.2912 39.7537 42.0752ZM35.8477 39.8212C35.353 39.8212 34.9377 39.9612 34.6017 40.2412C34.2657 40.5212 34.0603 40.9039 33.9857 41.3892H37.6957C37.621 40.9132 37.4157 40.5352 37.0797 40.2552C36.7437 39.9659 36.333 39.8212 35.8477 39.8212Z" fill="#282828"/>
<path d="M26.822 45.9812C26.0474 45.9812 25.296 45.8785 24.568 45.6732C23.8494 45.4585 23.2707 45.1832 22.832 44.8472L23.602 43.1392C24.022 43.4472 24.5214 43.6945 25.1 43.8812C25.6787 44.0679 26.2574 44.1612 26.836 44.1612C27.48 44.1612 27.956 44.0679 28.264 43.8812C28.572 43.6852 28.726 43.4285 28.726 43.1112C28.726 42.8779 28.6327 42.6865 28.446 42.5372C28.2687 42.3785 28.0354 42.2525 27.746 42.1592C27.466 42.0659 27.0834 41.9632 26.598 41.8512C25.8514 41.6739 25.24 41.4965 24.764 41.3192C24.288 41.1419 23.8774 40.8572 23.532 40.4652C23.196 40.0732 23.028 39.5505 23.028 38.8972C23.028 38.3279 23.182 37.8145 23.49 37.3572C23.798 36.8905 24.26 36.5219 24.876 36.2512C25.5014 35.9805 26.262 35.8452 27.158 35.8452C27.7834 35.8452 28.3947 35.9199 28.992 36.0692C29.5894 36.2185 30.112 36.4332 30.56 36.7132L29.86 38.4352C28.9547 37.9219 28.0494 37.6652 27.144 37.6652C26.5094 37.6652 26.038 37.7679 25.73 37.9732C25.4314 38.1785 25.282 38.4492 25.282 38.7852C25.282 39.1212 25.4547 39.3732 25.8 39.5412C26.1547 39.6999 26.6914 39.8585 27.41 40.0172C28.1567 40.1945 28.768 40.3719 29.244 40.5492C29.72 40.7265 30.126 41.0065 30.462 41.3892C30.8074 41.7719 30.98 42.2899 30.98 42.9432C30.98 43.5032 30.8214 44.0165 30.504 44.4832C30.196 44.9405 29.7294 45.3045 29.104 45.5752C28.4787 45.8459 27.718 45.9812 26.822 45.9812Z" fill="#282828"/>
<path d="M179.99 79.5634H25.7299C24.8574 79.5634 24.0206 79.2168 23.4036 78.5998C22.7866 77.9828 22.4399 77.146 22.4399 76.2734C22.4399 75.4008 22.7866 74.564 23.4036 73.947C24.0206 73.33 24.8574 72.9834 25.7299 72.9834H179.99C180.862 72.9834 181.699 73.33 182.316 73.947C182.933 74.564 183.28 75.4008 183.28 76.2734C183.28 77.146 182.933 77.9828 182.316 78.5998C181.699 79.2168 180.862 79.5634 179.99 79.5634Z" fill="#C9C9C9"/>
<path d="M127.24 72.9834H25.73C24.8562 72.9834 24.0181 73.3306 23.4001 73.9485C22.7822 74.5664 22.4351 75.4045 22.4351 76.2784C22.4351 77.1523 22.7822 77.9904 23.4001 78.6083C24.0181 79.2263 24.8562 79.5734 25.73 79.5734H127.24V72.9834Z" fill="#F85C3A"/>
<path d="M179.99 107.903H25.7299C24.8574 107.903 24.0206 107.557 23.4036 106.94C22.7866 106.323 22.4399 105.486 22.4399 104.613C22.4399 103.741 22.7866 102.904 23.4036 102.287C24.0206 101.67 24.8574 101.323 25.7299 101.323H179.99C180.862 101.323 181.699 101.67 182.316 102.287C182.933 102.904 183.28 103.741 183.28 104.613C183.28 105.486 182.933 106.323 182.316 106.94C181.699 107.557 180.862 107.903 179.99 107.903Z" fill="#C9C9C9"/>
<path d="M85.8801 101.313H25.73C24.8562 101.313 24.0181 101.66 23.4001 102.278C22.7822 102.896 22.4351 103.734 22.4351 104.608C22.4351 105.482 22.7822 106.32 23.4001 106.938C24.0181 107.556 24.8562 107.903 25.73 107.903H85.8801V101.313Z" fill="#F85C3A"/>
<path d="M179.99 136.243H25.7299C24.8574 136.243 24.0206 135.897 23.4036 135.28C22.7866 134.663 22.4399 133.826 22.4399 132.953C22.4399 132.081 22.7866 131.244 23.4036 130.627C24.0206 130.01 24.8574 129.663 25.7299 129.663H179.99C180.862 129.663 181.699 130.01 182.316 130.627C182.933 131.244 183.28 132.081 183.28 132.953C183.28 133.826 182.933 134.663 182.316 135.28C181.699 135.897 180.862 136.243 179.99 136.243Z" fill="#C9C9C9"/>
<path d="M157.41 129.693H25.73C24.8562 129.693 24.0181 130.041 23.4001 130.658C22.7822 131.276 22.4351 132.114 22.4351 132.988C22.4351 133.862 22.7822 134.7 23.4001 135.318C24.0181 135.936 24.8562 136.283 25.73 136.283H157.41V129.693Z" fill="#F85C3A"/>
<path d="M66.6702 162.953C57.9204 162.953 49.367 165.548 42.0918 170.409C34.8165 175.27 29.1462 182.18 25.7978 190.263C22.4493 198.347 21.5732 207.242 23.2803 215.824C24.9873 224.406 29.2007 232.289 35.3878 238.476C41.5749 244.663 49.4577 248.876 58.0394 250.583C66.6211 252.29 75.5163 251.414 83.6001 248.066C91.6839 244.717 98.5933 239.047 103.454 231.772C108.316 224.497 110.91 215.943 110.91 207.193C110.912 201.383 109.768 195.63 107.545 190.262C105.323 184.894 102.064 180.016 97.9555 175.908C93.8472 171.8 88.9697 168.541 83.6017 166.318C78.2336 164.095 72.4803 162.952 66.6702 162.953ZM66.6702 242.013C59.7835 242.013 53.0514 239.971 47.3252 236.145C41.5991 232.319 37.1362 226.881 34.5007 220.518C31.8653 214.156 31.1757 207.155 32.5193 200.4C33.8628 193.646 37.1791 187.442 42.0487 182.572C46.9184 177.702 53.1228 174.386 59.8772 173.042C66.6316 171.699 73.6328 172.388 79.9953 175.024C86.3578 177.659 91.7959 182.122 95.622 187.848C99.4481 193.575 101.49 200.307 101.49 207.193C101.49 216.428 97.8217 225.285 91.2917 231.815C84.7616 238.345 75.905 242.013 66.6702 242.013Z" fill="#484848"/>
<path d="M69.9501 251.313C78.1028 250.707 85.9281 247.854 92.557 243.069C99.1859 238.285 104.359 231.757 107.502 224.21C110.645 216.663 111.635 208.393 110.362 200.317C109.089 192.242 105.603 184.677 100.29 178.463C99.87 177.965 99.3513 177.559 98.7666 177.272C98.182 176.984 97.544 176.82 96.893 176.791C96.242 176.762 95.592 176.868 94.984 177.102C94.3759 177.337 93.8231 177.695 93.3601 178.153C92.524 178.976 92.0288 180.083 91.9732 181.255C91.9176 182.426 92.3057 183.575 93.0601 184.473C98.8039 191.13 101.817 199.713 101.494 208.5C101.171 217.286 97.5359 225.625 91.3188 231.842C85.1017 238.059 76.7629 241.694 67.9765 242.017C59.1902 242.34 50.6069 239.327 43.9501 233.583C43.0522 232.829 41.9029 232.441 40.7314 232.496C39.5599 232.552 38.4525 233.047 37.6301 233.883C37.1715 234.346 36.8137 234.899 36.5792 235.507C36.3448 236.115 36.2388 236.765 36.2679 237.416C36.297 238.067 36.4606 238.705 36.7484 239.29C37.0362 239.874 37.442 240.393 37.9401 240.813C46.7971 248.41 58.3043 252.186 69.9401 251.313" fill="#F85C3A"/>
<path d="M69.9502 251.313C78.8786 250.658 87.393 247.288 94.3501 241.653C94.8255 241.259 95.2187 240.776 95.5071 240.23C95.7955 239.684 95.9736 239.086 96.0312 238.472C96.0888 237.857 96.0247 237.237 95.8426 236.647C95.6606 236.057 95.3641 235.509 94.9701 235.033C94.5762 234.558 94.0924 234.165 93.5465 233.876C93.0006 233.588 92.4033 233.41 91.7885 233.352C91.1738 233.295 90.5538 233.359 89.9638 233.541C89.3739 233.723 88.8255 234.019 88.3501 234.413C82.0577 239.447 74.2114 242.138 66.154 242.025C58.0965 241.912 50.3288 239.002 44.1801 233.793C43.2907 233.009 42.1457 232.577 40.9601 232.577C39.7745 232.577 38.6296 233.009 37.7401 233.793C37.2628 234.249 36.8864 234.8 36.6351 235.41C36.3838 236.02 36.2631 236.676 36.281 237.336C36.2989 237.995 36.455 238.644 36.739 239.239C37.0231 239.835 37.4288 240.364 37.9301 240.793C46.7871 248.39 58.2943 252.166 69.9301 251.293" fill="#282828"/>
<path d="M66.6702 251.923C57.8214 251.923 49.1714 249.299 41.814 244.383C34.4565 239.467 28.7221 232.48 25.3358 224.305C21.9496 216.129 21.0636 207.134 22.7899 198.455C24.5162 189.776 28.7772 181.804 35.0342 175.547C41.2913 169.29 49.2631 165.029 57.9418 163.303C66.6206 161.577 75.6163 162.463 83.7915 165.849C91.9666 169.235 98.954 174.97 103.87 182.327C108.786 189.685 111.41 198.335 111.41 207.183C111.397 219.045 106.679 230.417 98.2915 238.805C89.904 247.192 78.5319 251.91 66.6702 251.923ZM66.6702 163.453C58.0188 163.453 49.5617 166.019 42.3685 170.826C35.1753 175.632 29.569 182.464 26.2587 190.457C22.9485 198.45 22.0828 207.245 23.7714 215.73C25.4599 224.215 29.6267 232.009 35.7449 238.126C41.863 244.243 49.6577 248.408 58.1431 250.094C66.6285 251.781 75.4234 250.913 83.4157 247.601C91.4079 244.289 98.2385 238.681 103.044 231.487C107.849 224.292 110.412 215.835 110.41 207.183C110.397 195.588 105.784 184.471 97.5838 176.273C89.3835 168.074 78.2658 163.464 66.6702 163.453ZM66.6702 242.513C59.6845 242.513 52.8558 240.442 47.0474 236.561C41.2391 232.68 36.7121 227.164 34.0388 220.71C31.3655 214.256 30.666 207.154 32.0288 200.303C33.3916 193.451 36.7556 187.158 41.6952 182.218C46.6348 177.279 52.9282 173.915 59.7796 172.552C66.631 171.189 73.7326 171.889 80.1865 174.562C86.6404 177.235 92.1567 181.762 96.0377 187.571C99.9187 193.379 101.99 200.208 101.99 207.193C101.98 216.558 98.255 225.535 91.6335 232.157C85.012 238.778 76.0344 242.503 66.6702 242.513ZM66.6702 172.863C59.8823 172.863 53.2469 174.876 47.603 178.647C41.9591 182.418 37.5603 187.779 34.9627 194.05C32.3651 200.321 31.6854 207.221 33.0097 213.879C34.3339 220.536 37.6026 226.652 42.4023 231.451C47.202 236.251 53.3172 239.52 59.9747 240.844C66.6321 242.168 73.5327 241.489 79.8039 238.891C86.0751 236.293 91.4351 231.894 95.2062 226.251C98.9774 220.607 100.99 213.971 100.99 207.183C100.977 198.086 97.3565 189.365 90.9229 182.934C84.4892 176.502 75.7674 172.884 66.6702 172.873V172.863Z" fill="#C9C9C9"/>
<path d="M66.6801 251.923C56.0207 251.944 45.7081 248.137 37.6201 241.193C37.0671 240.721 36.6174 240.14 36.2991 239.486C35.9808 238.832 35.8008 238.12 35.7701 237.393C35.7306 236.39 35.9829 235.397 36.4965 234.534C37.0101 233.672 37.7628 232.976 38.6636 232.533C39.5643 232.089 40.5743 231.917 41.5712 232.036C42.5681 232.155 43.509 232.56 44.2801 233.203C47.7501 236.202 51.7881 238.471 56.1536 239.876C60.519 241.282 65.1225 241.794 69.6901 241.383C77.7053 240.631 85.2064 237.105 90.8989 231.412C96.5913 225.72 100.118 218.218 100.87 210.203C101.283 205.636 100.771 201.032 99.3657 196.666C97.9603 192.3 95.69 188.262 92.6901 184.793C92.0471 184.022 91.6415 183.081 91.5225 182.084C91.4035 181.087 91.5763 180.077 92.0198 179.177C92.4632 178.276 93.1584 177.523 94.0211 177.01C94.8838 176.496 95.8769 176.244 96.8801 176.283C97.6067 176.314 98.3191 176.494 98.9729 176.812C99.6267 177.131 100.208 177.58 100.68 178.133C106.055 184.418 109.582 192.069 110.87 200.237C112.158 208.406 111.157 216.771 107.977 224.405C104.798 232.038 99.5645 238.641 92.8586 243.479C86.1527 248.318 78.2367 251.203 69.9901 251.813C68.8768 251.887 67.7734 251.923 66.6801 251.923ZM40.9801 232.983C40.4231 232.983 39.8715 233.092 39.3567 233.305C38.842 233.518 38.3742 233.83 37.9801 234.223C37.5701 234.629 37.2497 235.117 37.0395 235.654C36.8294 236.191 36.7342 236.767 36.7601 237.343C36.7851 237.932 36.9312 238.51 37.1893 239.04C37.4474 239.569 37.8119 240.041 38.2601 240.423C47.0184 247.94 58.4016 251.673 69.9101 250.803C77.966 250.201 85.6977 247.379 92.2475 242.65C98.7973 237.922 103.909 231.471 107.016 224.014C110.123 216.557 111.104 208.385 109.85 200.405C108.595 192.425 105.155 184.948 99.9101 178.803C99.5273 178.355 99.0563 177.991 98.5264 177.733C97.9964 177.474 97.419 177.328 96.8301 177.303C96.0215 177.272 95.2209 177.475 94.5253 177.889C93.8297 178.302 93.2687 178.908 92.9102 179.634C92.5517 180.359 92.4109 181.173 92.5049 181.977C92.599 182.781 92.9238 183.54 93.4401 184.163C96.5279 187.733 98.8648 191.889 100.311 196.381C101.758 200.874 102.285 205.612 101.86 210.313C101.086 218.562 97.4561 226.282 91.5976 232.141C85.739 237.999 78.0191 241.629 69.7701 242.403C65.0693 242.828 60.331 242.301 55.8382 240.855C51.3453 239.408 47.19 237.071 43.6201 233.983C42.8894 233.344 41.9511 232.992 40.9801 232.993V232.983Z" fill="#C9C9C9"/>
<path d="M66.68 251.923C56.0206 251.944 45.7081 248.137 37.62 241.193C37.0556 240.712 36.5991 240.116 36.2803 239.446C35.9615 238.775 35.7877 238.045 35.7701 237.303C35.7497 236.574 35.8855 235.849 36.1684 235.176C36.4512 234.504 36.8745 233.899 37.41 233.403C38.3894 232.533 39.6544 232.052 40.965 232.052C42.2756 232.052 43.5406 232.533 44.5201 233.403C50.5796 238.54 58.236 241.41 66.1788 241.523C74.1216 241.637 81.8567 238.985 88.06 234.023C88.843 233.383 89.7954 232.984 90.8011 232.876C91.8067 232.768 92.8221 232.955 93.7234 233.414C94.6246 233.873 95.3728 234.585 95.8765 235.462C96.3802 236.339 96.6177 237.344 96.56 238.353C96.5228 239.066 96.3361 239.763 96.0122 240.398C95.6884 241.034 95.2345 241.594 94.68 242.043C87.647 247.749 79.0326 251.159 70 251.813C68.88 251.887 67.7734 251.923 66.68 251.923ZM40.89 233.053C39.853 233.043 38.8511 233.429 38.09 234.133C37.6581 234.534 37.3168 235.022 37.0891 235.566C36.8615 236.109 36.7527 236.695 36.7701 237.283C36.7848 237.884 36.926 238.475 37.1845 239.018C37.4429 239.561 37.8128 240.043 38.2701 240.433C46.0079 247.064 55.8228 250.776 66.0118 250.926C76.2008 251.076 86.1207 247.654 94.05 241.253C94.5023 240.892 94.8707 240.436 95.1297 239.918C95.3887 239.4 95.5321 238.832 95.55 238.253C95.5989 237.435 95.4079 236.621 95.0005 235.91C94.5931 235.198 93.987 234.622 93.2564 234.25C92.5259 233.878 91.7028 233.728 90.8881 233.817C90.0734 233.907 89.3025 234.232 88.67 234.753C82.2866 239.861 74.3264 242.591 66.152 242.476C57.9776 242.361 50.0973 239.408 43.86 234.123C43.0237 233.427 41.9684 233.048 40.88 233.053H40.89Z" fill="#C9C9C9"/>
<path d="M177.58 39.6934H176.58C176.382 38.8341 176.044 38.0132 175.58 37.2634L176.27 36.5733C176.342 36.5027 176.398 36.4186 176.437 36.3259C176.476 36.2332 176.495 36.1338 176.495 36.0333C176.495 35.9329 176.476 35.8335 176.437 35.7408C176.398 35.6481 176.342 35.564 176.27 35.4934L174.73 33.9534C174.66 33.882 174.576 33.8254 174.483 33.7867C174.39 33.748 174.291 33.7281 174.19 33.7281C174.09 33.7281 173.99 33.748 173.898 33.7867C173.805 33.8254 173.721 33.882 173.65 33.9534L172.96 34.6433C172.21 34.1793 171.39 33.8415 170.53 33.6433V32.6934C170.53 32.4918 170.45 32.2985 170.308 32.156C170.165 32.0134 169.972 31.9333 169.77 31.9333H167.59C167.389 31.9333 167.195 32.0134 167.053 32.156C166.91 32.2985 166.83 32.4918 166.83 32.6934V33.6934C165.975 33.8927 165.157 34.2305 164.41 34.6934L163.72 34.0033C163.65 33.932 163.566 33.8754 163.473 33.8367C163.38 33.798 163.281 33.7781 163.18 33.7781C163.08 33.7781 162.98 33.798 162.888 33.8367C162.795 33.8754 162.711 33.932 162.64 34.0033L161.1 35.5434C161.029 35.614 160.972 35.6981 160.934 35.7908C160.895 35.8835 160.875 35.9829 160.875 36.0834C160.875 36.1838 160.895 36.2832 160.934 36.3759C160.972 36.4686 161.029 36.5527 161.1 36.6234L161.79 37.3134C161.326 38.0633 160.989 38.8842 160.79 39.7434H159.79C159.589 39.7434 159.395 39.8234 159.253 39.966C159.11 40.1085 159.03 40.3018 159.03 40.5033V42.6934C159.03 42.8949 159.11 43.0882 159.253 43.2308C159.395 43.3733 159.589 43.4534 159.79 43.4534H160.79C160.99 44.3091 161.327 45.1265 161.79 45.8734L161.1 46.5634C161.029 46.634 160.972 46.7181 160.934 46.8108C160.895 46.9035 160.875 47.0029 160.875 47.1034C160.875 47.2038 160.895 47.3032 160.934 47.3959C160.972 47.4886 161.029 47.5727 161.1 47.6433L162.64 49.1833C162.711 49.2547 162.795 49.3113 162.888 49.35C162.98 49.3887 163.08 49.4086 163.18 49.4086C163.281 49.4086 163.38 49.3887 163.473 49.35C163.566 49.3113 163.65 49.2547 163.72 49.1833L164.41 48.4934C165.157 48.9562 165.975 49.294 166.83 49.4934V50.4934C166.83 50.6949 166.91 50.8882 167.053 51.0308C167.195 51.1733 167.389 51.2533 167.59 51.2533H169.77C169.972 51.2533 170.165 51.1733 170.308 51.0308C170.45 50.8882 170.53 50.6949 170.53 50.4934V49.4934C171.389 49.295 172.21 48.9572 172.96 48.4934L173.65 49.1833C173.721 49.2547 173.805 49.3113 173.898 49.35C173.99 49.3887 174.09 49.4086 174.19 49.4086C174.291 49.4086 174.39 49.3887 174.483 49.35C174.576 49.3113 174.66 49.2547 174.73 49.1833L176.27 47.6433C176.342 47.5727 176.398 47.4886 176.437 47.3959C176.476 47.3032 176.495 47.2038 176.495 47.1034C176.495 47.0029 176.476 46.9035 176.437 46.8108C176.398 46.7181 176.342 46.634 176.27 46.5634L175.58 45.8734C176.043 45.1266 176.381 44.3091 176.58 43.4534H177.58C177.782 43.4534 177.975 43.3733 178.118 43.2308C178.26 43.0882 178.34 42.8949 178.34 42.6934V40.4934C178.346 40.3902 178.33 40.2871 178.294 40.1902C178.259 40.0933 178.203 40.0048 178.132 39.9299C178.061 39.855 177.976 39.7955 177.881 39.7548C177.786 39.7141 177.684 39.6932 177.58 39.6934ZM168.7 45.4333C167.933 45.4333 167.183 45.2058 166.545 44.7795C165.907 44.3531 165.409 43.7471 165.116 43.0382C164.822 42.3292 164.745 41.549 164.895 40.7964C165.045 40.0438 165.414 39.3524 165.957 38.8098C166.499 38.2671 167.191 37.8976 167.943 37.7479C168.696 37.5982 169.476 37.675 170.185 37.9687C170.894 38.2624 171.5 38.7597 171.926 39.3977C172.353 40.0358 172.58 40.786 172.58 41.5534C172.584 42.0654 172.487 42.5732 172.294 43.0474C172.1 43.5216 171.815 43.9529 171.455 44.3163C171.094 44.6798 170.665 44.9683 170.192 45.1652C169.719 45.362 169.212 45.4634 168.7 45.4633V45.4333Z" fill="#F85C3A"/>
<path d="M43.2858 59.2332V65.4734H42.5121V64.7669C42.3327 65.0136 42.1056 65.2015 41.8309 65.3304C41.5561 65.4594 41.2534 65.5238 40.9226 65.5238C40.4909 65.5238 40.104 65.4285 39.762 65.2379C39.42 65.0473 39.1509 64.781 38.9546 64.4389C38.764 64.0913 38.6687 63.6933 38.6687 63.2447C38.6687 62.7962 38.764 62.4009 38.9546 62.0589C39.1509 61.7169 39.42 61.4506 39.762 61.26C40.104 61.0693 40.4909 60.974 40.9226 60.974C41.2422 60.974 41.5365 61.0357 41.8056 61.159C42.0748 61.2768 42.299 61.4534 42.4784 61.6889V59.2332H43.2858ZM40.9899 64.8174C41.2702 64.8174 41.5253 64.7529 41.7552 64.624C41.985 64.4894 42.1645 64.3044 42.2934 64.0689C42.4224 63.8278 42.4868 63.5531 42.4868 63.2447C42.4868 62.9364 42.4224 62.6644 42.2934 62.429C42.1645 62.1879 41.985 62.0028 41.7552 61.8739C41.5253 61.7449 41.2702 61.6805 40.9899 61.6805C40.7039 61.6805 40.446 61.7449 40.2161 61.8739C39.9919 62.0028 39.8125 62.1879 39.6779 62.429C39.5489 62.6644 39.4845 62.9364 39.4845 63.2447C39.4845 63.5531 39.5489 63.8278 39.6779 64.0689C39.8125 64.3044 39.9919 64.4894 40.2161 64.624C40.446 64.7529 40.7039 64.8174 40.9899 64.8174Z" fill="#484848"/>
<path d="M35.6515 65.5239C35.2086 65.5239 34.8105 65.4258 34.4573 65.2296C34.104 65.0333 33.8265 64.7642 33.6247 64.4222C33.4284 64.0746 33.3303 63.6821 33.3303 63.2448C33.3303 62.8075 33.4284 62.4178 33.6247 62.0758C33.8265 61.7282 34.104 61.4591 34.4573 61.2685C34.8105 61.0722 35.2086 60.9741 35.6515 60.9741C36.0944 60.9741 36.4897 61.0722 36.8373 61.2685C37.1905 61.4591 37.4652 61.7282 37.6615 62.0758C37.8633 62.4178 37.9642 62.8075 37.9642 63.2448C37.9642 63.6821 37.8633 64.0746 37.6615 64.4222C37.4652 64.7642 37.1905 65.0333 36.8373 65.2296C36.4897 65.4258 36.0944 65.5239 35.6515 65.5239ZM35.6515 64.8175C35.9374 64.8175 36.1925 64.753 36.4168 64.6241C36.6467 64.4895 36.8261 64.3045 36.955 64.069C37.084 63.8279 37.1485 63.5532 37.1485 63.2448C37.1485 62.9365 37.084 62.6645 36.955 62.4291C36.8261 62.188 36.6467 62.0029 36.4168 61.874C36.1925 61.745 35.9374 61.6806 35.6515 61.6806C35.3655 61.6806 35.1076 61.745 34.8778 61.874C34.6535 62.0029 34.4741 62.188 34.3395 62.4291C34.2106 62.6645 34.1461 62.9365 34.1461 63.2448C34.1461 63.5532 34.2106 63.8279 34.3395 64.069C34.4741 64.3045 34.6535 64.4895 34.8778 64.6241C35.1076 64.753 35.3655 64.8175 35.6515 64.8175Z" fill="#484848"/>
<path d="M30.3131 65.5239C29.8702 65.5239 29.4721 65.4258 29.1189 65.2296C28.7657 65.0333 28.4881 64.7642 28.2863 64.4222C28.0901 64.0746 27.9919 63.6821 27.9919 63.2448C27.9919 62.8075 28.0901 62.4178 28.2863 62.0758C28.4881 61.7282 28.7657 61.4591 29.1189 61.2685C29.4721 61.0722 29.8702 60.9741 30.3131 60.9741C30.756 60.9741 31.1513 61.0722 31.4989 61.2685C31.8521 61.4591 32.1269 61.7282 32.3231 62.0758C32.5249 62.4178 32.6259 62.8075 32.6259 63.2448C32.6259 63.6821 32.5249 64.0746 32.3231 64.4222C32.1269 64.7642 31.8521 65.0333 31.4989 65.2296C31.1513 65.4258 30.756 65.5239 30.3131 65.5239ZM30.3131 64.8175C30.599 64.8175 30.8541 64.753 31.0784 64.6241C31.3083 64.4895 31.4877 64.3045 31.6167 64.069C31.7456 63.8279 31.8101 63.5532 31.8101 63.2448C31.8101 62.9365 31.7456 62.6645 31.6167 62.4291C31.4877 62.188 31.3083 62.0029 31.0784 61.874C30.8541 61.745 30.599 61.6806 30.3131 61.6806C30.0272 61.6806 29.7693 61.745 29.5394 61.874C29.3151 62.0029 29.1357 62.188 29.0011 62.4291C28.8722 62.6645 28.8077 62.9365 28.8077 63.2448C28.8077 63.5532 28.8722 63.8279 29.0011 64.069C29.1357 64.3045 29.3151 64.4895 29.5394 64.6241C29.7693 64.753 30.0272 64.8175 30.3131 64.8175Z" fill="#484848"/>
<path d="M24.164 60.3181V62.3701H27.1159V63.0934H24.164V65.4734H23.323V59.5864H27.4775V60.3181H24.164Z" fill="#484848"/>
<path d="M53.2532 94.1135C52.8887 94.1135 52.5383 94.0659 52.2019 93.9706C51.8655 93.8696 51.602 93.7435 51.4114 93.5921L51.7478 92.953C51.944 93.0931 52.1823 93.2053 52.4626 93.2894C52.743 93.3735 53.0261 93.4155 53.312 93.4155C54.0185 93.4155 54.3717 93.2137 54.3717 92.81C54.3717 92.6754 54.324 92.5689 54.2287 92.4904C54.1334 92.4119 54.0129 92.3558 53.8671 92.3222C53.7269 92.283 53.5251 92.2409 53.2616 92.1961C52.9028 92.14 52.6084 92.0755 52.3785 92.0026C52.1543 91.9297 51.9608 91.8064 51.7982 91.6326C51.6356 91.4588 51.5543 91.2149 51.5543 90.9009C51.5543 90.4972 51.7225 90.1748 52.0589 89.9338C52.3953 89.6871 52.8467 89.5637 53.413 89.5637C53.7101 89.5637 54.0073 89.6002 54.3044 89.6731C54.6016 89.7459 54.8455 89.8441 55.0361 89.9674L54.6913 90.6066C54.3268 90.3711 53.8979 90.2533 53.4045 90.2533C53.0625 90.2533 52.8018 90.3094 52.6224 90.4215C52.443 90.5337 52.3533 90.6823 52.3533 90.8673C52.3533 91.013 52.4038 91.128 52.5047 91.2121C52.6056 91.2962 52.7289 91.3579 52.8747 91.3971C53.0261 91.4363 53.2363 91.4812 53.5055 91.5317C53.8643 91.5933 54.153 91.6606 54.3717 91.7335C54.596 91.8008 54.7866 91.9185 54.9436 92.0867C55.1006 92.2549 55.1791 92.4904 55.1791 92.7932C55.1791 93.1968 55.0053 93.5192 54.6576 93.7603C54.3156 93.9958 53.8475 94.1135 53.2532 94.1135Z" fill="#484848"/>
<path d="M50.4323 89.6058V93.4576C50.4323 94.2369 50.2389 94.8116 49.852 95.1816C49.4652 95.5572 48.8877 95.7451 48.1196 95.7451C47.6991 95.7451 47.2982 95.6862 46.9169 95.5685C46.5357 95.4563 46.2273 95.2937 45.9918 95.0807L46.3787 94.4583C46.5861 94.6378 46.8412 94.7779 47.144 94.8788C47.4524 94.9854 47.7691 95.0386 48.0943 95.0386C48.6157 95.0386 48.9998 94.9153 49.2465 94.6686C49.4988 94.4219 49.6249 94.0463 49.6249 93.5417V93.1884C49.4343 93.4183 49.1988 93.5921 48.9185 93.7099C48.6438 93.822 48.3438 93.8781 48.0186 93.8781C47.5925 93.8781 47.2057 93.7883 46.8581 93.6089C46.5161 93.4239 46.2469 93.1688 46.0507 92.8436C45.8545 92.5128 45.7563 92.1372 45.7563 91.7167C45.7563 91.2962 45.8545 90.9233 46.0507 90.5982C46.2469 90.2674 46.5161 90.0123 46.8581 89.8328C47.2057 89.6534 47.5925 89.5637 48.0186 89.5637C48.355 89.5637 48.6662 89.6254 48.9521 89.7487C49.2437 89.8721 49.482 90.0543 49.667 90.2954V89.6058H50.4323ZM48.1111 93.1716C48.4027 93.1716 48.6634 93.1099 48.8933 92.9866C49.1288 92.8632 49.311 92.6922 49.4399 92.4736C49.5745 92.2493 49.6418 91.997 49.6418 91.7167C49.6418 91.285 49.4988 90.9374 49.2129 90.6738C48.9269 90.4047 48.5597 90.2702 48.1111 90.2702C47.657 90.2702 47.287 90.4047 47.001 90.6738C46.7151 90.9374 46.5721 91.285 46.5721 91.7167C46.5721 91.997 46.6366 92.2493 46.7655 92.4736C46.9001 92.6922 47.0823 92.8632 47.3122 92.9866C47.5477 93.1099 47.814 93.1716 48.1111 93.1716Z" fill="#484848"/>
<path d="M42.7995 89.5637C43.3657 89.5637 43.8143 89.7291 44.1451 90.0599C44.4815 90.3851 44.6497 90.8645 44.6497 91.498V94.0631H43.8423V91.5905C43.8423 91.1588 43.7386 90.8336 43.5311 90.615C43.3237 90.3963 43.0265 90.287 42.6397 90.287C42.2024 90.287 41.8575 90.4159 41.6052 90.6738C41.3529 90.9261 41.2268 91.2906 41.2268 91.7671V94.0631H40.4194V89.6058H41.1932V90.2786C41.3557 90.0487 41.5744 89.8721 41.8491 89.7487C42.1295 89.6254 42.4462 89.5637 42.7995 89.5637Z" fill="#484848"/>
<path d="M38.0705 89.6058H38.8778V94.0631H38.0705V89.6058ZM38.4741 88.748C38.3172 88.748 38.1854 88.6976 38.0789 88.5966C37.9779 88.4957 37.9275 88.3724 37.9275 88.2266C37.9275 88.0808 37.9779 87.9575 38.0789 87.8566C38.1854 87.75 38.3172 87.6968 38.4741 87.6968C38.6311 87.6968 38.7601 87.7472 38.861 87.8482C38.9675 87.9435 39.0208 88.064 39.0208 88.2098C39.0208 88.3612 38.9675 88.4901 38.861 88.5966C38.7601 88.6976 38.6311 88.748 38.4741 88.748Z" fill="#484848"/>
<path d="M37.317 89.606L35.3659 94.0633H34.5417L32.5906 89.606H33.4316L34.9622 93.1802L36.5265 89.606H37.317Z" fill="#484848"/>
<path d="M30.0517 89.5637C30.6684 89.5637 31.1394 89.7151 31.4646 90.0179C31.7954 90.3206 31.9608 90.772 31.9608 91.3719V94.0631H31.1954V93.4744C31.0609 93.6818 30.8675 93.8416 30.6152 93.9537C30.3685 94.0603 30.0741 94.1135 29.7321 94.1135C29.2331 94.1135 28.8322 93.993 28.5295 93.7519C28.2323 93.5108 28.0837 93.194 28.0837 92.8016C28.0837 92.4091 28.2267 92.0951 28.5127 91.8597C28.7986 91.6186 29.2527 91.498 29.8751 91.498H31.1534V91.3382C31.1534 90.9906 31.0525 90.7243 30.8506 90.5393C30.6488 90.3543 30.3516 90.2618 29.9592 90.2618C29.6957 90.2618 29.4378 90.3066 29.1855 90.3963C28.9332 90.4804 28.7201 90.5953 28.5463 90.7411L28.2099 90.1356C28.4398 89.9506 28.7145 89.8104 29.0341 89.7151C29.3537 89.6142 29.6929 89.5637 30.0517 89.5637ZM29.8667 93.4912C30.175 93.4912 30.4413 93.4239 30.6656 93.2894C30.8899 93.1492 31.0525 92.953 31.1534 92.7007V92.0783H29.9087C29.2247 92.0783 28.8827 92.3082 28.8827 92.7679C28.8827 92.9922 28.9696 93.1688 29.1434 93.2978C29.3172 93.4267 29.5583 93.4912 29.8667 93.4912Z" fill="#484848"/>
<path d="M25.0385 94.1304C24.5956 94.1304 24.1667 94.0632 23.7518 93.9286C23.3425 93.7884 23.0201 93.609 22.7847 93.3904L23.0958 92.7344C23.3201 92.9362 23.606 93.1016 23.9537 93.2306C24.3069 93.3539 24.6685 93.4156 25.0385 93.4156C25.5263 93.4156 25.8908 93.3343 26.1318 93.1717C26.3729 93.0035 26.4935 92.782 26.4935 92.5073C26.4935 92.3055 26.4262 92.1429 26.2916 92.0195C26.1627 91.8906 26.0001 91.7925 25.8039 91.7252C25.6132 91.6579 25.3413 91.5822 24.9881 91.4981C24.5452 91.3916 24.1863 91.2851 23.9116 91.1785C23.6425 91.072 23.4098 90.9094 23.2136 90.6908C23.023 90.4665 22.9276 90.1665 22.9276 89.7909C22.9276 89.4769 23.0089 89.1938 23.1715 88.9415C23.3397 88.6892 23.592 88.4873 23.9284 88.336C24.2648 88.1846 24.6825 88.1089 25.1815 88.1089C25.5291 88.1089 25.8711 88.1537 26.2075 88.2434C26.5439 88.3332 26.8327 88.4621 27.0738 88.6303L26.7962 89.3031C26.5495 89.1461 26.286 89.0284 26.0057 88.9499C25.7254 88.8658 25.4506 88.8237 25.1815 88.8237C24.705 88.8237 24.3461 88.9106 24.105 89.0844C23.8696 89.2583 23.7518 89.4825 23.7518 89.7572C23.7518 89.9591 23.8191 90.1245 23.9537 90.2534C24.0882 90.3768 24.2536 90.4749 24.4498 90.5478C24.6517 90.6151 24.9236 90.688 25.2656 90.7664C25.7085 90.873 26.0646 90.9795 26.3337 91.086C26.6028 91.1926 26.8327 91.3551 27.0233 91.5738C27.2195 91.7925 27.3177 92.0868 27.3177 92.4569C27.3177 92.7652 27.2336 93.0484 27.0654 93.3063C26.8972 93.5586 26.6421 93.7604 26.3 93.9118C25.958 94.0576 25.5375 94.1304 25.0385 94.1304Z" fill="#484848"/>
<path d="M42.6956 123.443C42.5779 123.544 42.4321 123.622 42.2583 123.678C42.0845 123.729 41.9051 123.754 41.7201 123.754C41.2715 123.754 40.9239 123.633 40.6772 123.392C40.4305 123.151 40.3072 122.806 40.3072 122.358V119.91H39.5503V119.246H40.3072V118.271H41.1146V119.246H42.3929V119.91H41.1146V122.324C41.1146 122.565 41.1734 122.75 41.2912 122.879C41.4145 123.008 41.5883 123.073 41.8126 123.073C42.0593 123.073 42.2695 123.003 42.4433 122.862L42.6956 123.443Z" fill="#484848"/>
<path d="M36.8451 119.204C37.4114 119.204 37.8599 119.369 38.1907 119.7C38.5271 120.025 38.6953 120.505 38.6953 121.138V123.703H37.888V121.231C37.888 120.799 37.7842 120.474 37.5768 120.255C37.3693 120.037 37.0722 119.927 36.6853 119.927C36.248 119.927 35.9032 120.056 35.6509 120.314C35.3986 120.567 35.2724 120.931 35.2724 121.408V123.703H34.4651V119.246H35.2388V119.919C35.4014 119.689 35.6201 119.512 35.8948 119.389C36.1751 119.266 36.4919 119.204 36.8451 119.204Z" fill="#484848"/>
<path d="M33.344 121.5C33.344 121.562 33.3384 121.643 33.3272 121.744H29.7109C29.7614 122.136 29.9324 122.453 30.2239 122.694C30.5211 122.93 30.8883 123.047 31.3256 123.047C31.8583 123.047 32.2872 122.868 32.6124 122.509L33.0581 123.031C32.8563 123.266 32.604 123.446 32.3012 123.569C32.0041 123.692 31.6705 123.754 31.3004 123.754C30.8295 123.754 30.4118 123.659 30.0473 123.468C29.6829 123.272 29.3998 123 29.1979 122.652C29.0017 122.305 28.9036 121.912 28.9036 121.475C28.9036 121.043 28.9989 120.653 29.1895 120.306C29.3857 119.958 29.6521 119.689 29.9885 119.498C30.3305 119.302 30.7145 119.204 31.1406 119.204C31.5667 119.204 31.9452 119.302 32.276 119.498C32.6124 119.689 32.8731 119.958 33.0581 120.306C33.2487 120.653 33.344 121.051 33.344 121.5ZM31.1406 119.885C30.7538 119.885 30.4286 120.003 30.1651 120.239C29.9072 120.474 29.7558 120.782 29.7109 121.164H32.5703C32.5255 120.788 32.3713 120.482 32.1078 120.247C31.8499 120.006 31.5275 119.885 31.1406 119.885Z" fill="#484848"/>
<path d="M27.2589 123.703L25.989 121.895C25.832 121.906 25.7086 121.912 25.6189 121.912H24.164V123.703H23.323V117.816H25.6189C26.3814 117.816 26.9813 117.999 27.4187 118.363C27.856 118.727 28.0746 119.229 28.0746 119.868C28.0746 120.323 27.9625 120.709 27.7382 121.029C27.514 121.349 27.1944 121.581 26.7795 121.727L28.1756 123.703H27.2589ZM25.5937 121.197C26.1263 121.197 26.5328 121.082 26.8131 120.852C27.0935 120.623 27.2336 120.295 27.2336 119.868C27.2336 119.442 27.0935 119.117 26.8131 118.893C26.5328 118.663 26.1263 118.548 25.5937 118.548H24.164V121.197H25.5937Z" fill="#484848"/>
<path d="M61.4798 205.148C62.4099 205.148 63.2457 205.33 63.9871 205.694C64.7285 206.045 65.3081 206.55 65.726 207.211C66.1439 207.871 66.3528 208.633 66.3528 209.496C66.3528 210.412 66.1237 211.221 65.6653 211.922C65.207 212.609 64.5869 213.142 63.8051 213.519C63.0233 213.897 62.1471 214.086 61.1765 214.086C59.2354 214.086 57.7256 213.479 56.6472 212.266C55.5823 211.053 55.0498 209.314 55.0498 207.049C55.0498 205.458 55.3397 204.104 55.9193 202.985C56.4989 201.852 57.3077 200.996 58.3457 200.417C59.3971 199.824 60.6103 199.527 61.9853 199.527C62.7132 199.527 63.394 199.608 64.0275 199.77C64.6746 199.918 65.234 200.14 65.7058 200.437L64.7352 202.419C64.0343 201.96 63.1378 201.731 62.046 201.731C60.6845 201.731 59.6196 202.149 58.8512 202.985C58.0828 203.82 57.6987 205.027 57.6987 206.604V206.624C58.1165 206.139 58.649 205.775 59.296 205.532C59.9431 205.276 60.671 205.148 61.4798 205.148ZM61.035 212.023C61.8572 212.023 62.5245 211.807 63.0367 211.376C63.549 210.931 63.8051 210.345 63.8051 209.617C63.8051 208.875 63.549 208.289 63.0367 207.858C62.5245 207.426 61.837 207.211 60.9743 207.211C60.1251 207.211 59.4308 207.44 58.8916 207.898C58.3659 208.357 58.1031 208.936 58.1031 209.637C58.1031 210.325 58.3592 210.897 58.8714 211.356C59.3971 211.801 60.1183 212.023 61.035 212.023ZM72.9031 209.253L71.0227 211.032V213.883H68.4952V198.88H71.0227V207.939L76.2597 203.086H79.2927L74.7836 207.615L79.7173 213.883H76.6438L72.9031 209.253Z" fill="#EFF4FF"/>
<path d="M175.42 189.643H147.98C146.948 189.643 145.926 189.44 144.972 189.045C144.019 188.65 143.152 188.071 142.422 187.341C141.693 186.611 141.114 185.745 140.719 184.791C140.324 183.838 140.12 182.816 140.12 181.783C140.12 179.699 140.948 177.7 142.422 176.225C143.897 174.751 145.896 173.923 147.98 173.923H175.43C176.463 173.923 177.485 174.127 178.438 174.522C179.392 174.917 180.258 175.496 180.988 176.225C181.718 176.955 182.297 177.822 182.692 178.775C183.087 179.729 183.29 180.751 183.29 181.783C183.29 182.816 183.087 183.839 182.691 184.794C182.295 185.748 181.716 186.615 180.985 187.345C180.254 188.075 179.386 188.653 178.431 189.048C177.477 189.442 176.453 189.645 175.42 189.643Z" fill="#C9C9C9"/>
<path d="M174.29 187.433C177.488 187.433 180.081 184.841 180.081 181.643C180.081 178.446 177.488 175.853 174.29 175.853C171.093 175.853 168.5 178.446 168.5 181.643C168.5 184.841 171.093 187.433 174.29 187.433Z" fill="#F85C3A"/>
<path d="M147.99 216.343H175.43C176.462 216.343 177.485 216.14 178.438 215.745C179.392 215.35 180.258 214.771 180.988 214.041C181.718 213.311 182.297 212.445 182.692 211.491C183.087 210.538 183.29 209.515 183.29 208.483C183.29 206.399 182.462 204.399 180.988 202.925C179.514 201.451 177.515 200.623 175.43 200.623H147.98C146.948 200.623 145.926 200.827 144.972 201.222C144.019 201.617 143.152 202.196 142.422 202.925C141.693 203.655 141.114 204.522 140.719 205.475C140.324 206.429 140.12 207.451 140.12 208.483C140.12 209.516 140.324 210.539 140.72 211.493C141.115 212.448 141.695 213.315 142.426 214.045C143.157 214.775 144.025 215.353 144.979 215.748C145.934 216.142 146.957 216.345 147.99 216.343Z" fill="#C9C9C9"/>
<path d="M149.12 214.143C145.922 214.143 143.33 211.551 143.33 208.353C143.33 205.155 145.922 202.563 149.12 202.563C152.318 202.563 154.91 205.155 154.91 208.353C154.91 211.551 152.318 214.143 149.12 214.143Z" fill="#484848"/>
<path d="M175.43 227.323H147.97C143.629 227.323 140.11 230.842 140.11 235.183V235.193C140.11 239.534 143.629 243.053 147.97 243.053H175.43C179.771 243.053 183.29 239.534 183.29 235.193V235.183C183.29 230.842 179.771 227.323 175.43 227.323Z" fill="#C9C9C9"/>
<path d="M174.29 240.843C177.488 240.843 180.081 238.251 180.081 235.053C180.081 231.855 177.488 229.263 174.29 229.263C171.093 229.263 168.5 231.855 168.5 235.053C168.5 238.251 171.093 240.843 174.29 240.843Z" fill="#F85C3A"/>
<path d="M171.97 181.643L173.56 183.243L176.86 179.943" stroke="#EFF4FF" stroke-miterlimit="10" stroke-linecap="round"/>
<path d="M146.676 208.403L148.266 210.003L151.566 206.703" stroke="#EFF4FF" stroke-miterlimit="10" stroke-linecap="round"/>
<path d="M171.97 235.163L173.56 236.763L176.86 233.463" stroke="#EFF4FF" stroke-miterlimit="10" stroke-linecap="round"/>
</svg>
