<svg width="1920" height="1267" viewBox="0 0 1920 1267" fill="none" xmlns="http://www.w3.org/2000/svg">
<mask id="mask0_14_843" style="mask-type:alpha" maskUnits="userSpaceOnUse" x="0" y="0" width="1920" height="1267">
<path d="M0 0.396484H1920V1266.4H960H0V0.396484Z" fill="#F85C3A"/>
</mask>
<g mask="url(#mask0_14_843)">
<path d="M2233.19 562.194C2236.05 561.013 2238.35 558.773 2239.59 555.941L2426.65 131.387C2432.17 118.853 2451 123.866 2449.56 137.487L2327.66 1290.08C2326.73 1298.87 2316.93 1303.67 2309.41 1299.02L1584.28 850.696C1575.95 845.548 1576.96 833.133 1586.01 829.397L2233.19 562.194Z" fill="white" fill-opacity="0.15"/>
<path d="M1804.47 1016.95C1813.65 1022.58 1811.33 1036.52 1800.83 1038.88L1445.44 1118.89C1435.61 1121.1 1427.59 1110.94 1432.04 1101.89L1544.51 872.89C1547.62 866.544 1555.52 864.254 1561.55 867.951L1804.47 1016.95Z" fill="white" fill-opacity="0.15"/>
<path d="M1845.86 1055.76C1848.36 1055.2 1850.98 1055.45 1853.32 1056.48L2094.49 1162.6C2104.47 1166.99 2103.9 1181.34 2093.59 1184.92L1148.68 1512.8C1137.32 1516.74 1127.87 1503.38 1135.37 1493.98L1403.68 1157.74C1405.38 1155.6 1407.77 1154.11 1410.43 1153.52L1845.86 1055.76Z" fill="white" fill-opacity="0.15"/>
<path d="M2030.78 288.951L2311.89 -121.947C2319.23 -132.665 2335.99 -125.721 2333.59 -112.958L2211.55 537.392C2210.8 541.387 2208.08 544.731 2204.32 546.277L1707.05 750.786C1695.73 755.441 1685.52 742.151 1692.94 732.415L2030.78 288.951Z" fill="white" fill-opacity="0.15"/>
<path d="M1810.46 122.755C1810.8 119.938 1812.12 117.332 1814.19 115.397L2284.26 -323.268C2294.07 -332.425 2309.23 -321.023 2303.15 -309.058L2001.91 283.686C2001.59 284.327 2001.2 284.938 2000.77 285.511L1778.98 577.308C1771.59 587.042 1756.07 580.772 1757.51 568.632L1810.46 122.755Z" fill="white" fill-opacity="0.15"/>
<path d="M1908.19 -441.143C1908.49 -444.021 1909.82 -446.694 1911.94 -448.669L2384.94 -890.072C2394.64 -899.126 2409.69 -888.06 2403.94 -876.099L2047.31 -134.329C2046.65 -132.971 2045.75 -131.748 2044.64 -130.723L1881.05 20.7272C1872.93 28.251 1859.81 21.6889 1860.97 10.6741L1908.19 -441.143Z" fill="white" fill-opacity="0.15"/>
<path d="M-313.192 562.194C-316.052 561.013 -318.346 558.772 -319.594 555.94L-506.647 131.386C-512.169 118.852 -531.002 123.866 -529.562 137.487L-407.657 1290.08C-406.727 1298.87 -396.933 1303.67 -389.413 1299.02L335.721 850.696C344.048 845.548 343.039 833.133 333.99 829.397L-313.192 562.194Z" fill="white" fill-opacity="0.15"/>
<path d="M115.534 1016.95C106.353 1022.58 108.665 1036.52 119.173 1038.88L474.558 1118.89C484.392 1121.1 492.408 1110.94 487.964 1101.89L375.493 872.89C372.376 866.543 364.475 864.254 358.448 867.951L115.534 1016.95Z" fill="white" fill-opacity="0.15"/>
<path d="M74.1401 1055.76C71.6393 1055.2 69.0244 1055.45 66.6784 1056.48L-174.491 1162.6C-184.473 1166.99 -183.895 1181.34 -173.592 1184.92L771.318 1512.8C782.68 1516.74 792.133 1503.38 784.631 1493.98L516.32 1157.74C514.616 1155.6 512.234 1154.11 509.569 1153.52L74.1401 1055.76Z" fill="white" fill-opacity="0.15"/>
<path d="M-110.784 288.951L-391.893 -121.947C-399.226 -132.665 -415.987 -125.721 -413.592 -112.959L-291.549 537.392C-290.8 541.387 -288.079 544.731 -284.319 546.277L212.954 750.785C224.274 755.441 234.481 742.151 227.064 732.415L-110.784 288.951Z" fill="white" fill-opacity="0.15"/>
<path d="M109.535 122.754C109.201 119.938 107.88 117.331 105.806 115.396L-364.26 -323.268C-374.072 -332.425 -389.226 -321.023 -383.145 -309.059L-81.9131 283.686C-81.5871 284.327 -81.2042 284.938 -80.7689 285.51L141.017 577.308C148.415 587.041 163.928 580.772 162.487 568.631L109.535 122.754Z" fill="white" fill-opacity="0.15"/>
<path d="M11.8104 -441.143C11.5095 -444.022 10.1785 -446.694 8.06255 -448.669L-464.938 -890.072C-474.641 -899.127 -489.691 -888.06 -483.94 -876.099L-127.305 -134.33C-126.652 -132.971 -125.748 -131.748 -124.642 -130.724L38.9477 20.727C47.0745 28.2508 60.1862 21.6887 59.0349 10.6739L11.8104 -441.143Z" fill="white" fill-opacity="0.15"/>
</g>
</svg>
