<svg width="1376" height="314" viewBox="0 0 1376 314" fill="none" xmlns="http://www.w3.org/2000/svg">
<mask id="mask0_143_54" style="mask-type:alpha" maskUnits="userSpaceOnUse" x="0" y="0" width="1376" height="314">
<path d="M0 0H1376V314H688H0V0Z" fill="#F85C3A"/>
</mask>
<g mask="url(#mask0_143_54)">
<path d="M1674.05 -123.795C1676.27 -124.709 1678.04 -126.444 1679.01 -128.636L1823.8 -457.275C1828.08 -466.977 1842.66 -463.096 1841.54 -452.553L1747.18 439.645C1746.46 446.45 1738.88 450.167 1733.05 446.569L1171.74 99.5285C1165.3 95.5435 1166.08 85.9336 1173.08 83.0417L1674.05 -123.795Z" fill="white" fill-opacity="0.15"/>
<path d="M1342.18 228.219C1349.29 232.579 1347.5 243.369 1339.37 245.2L1064.27 307.13C1056.66 308.844 1050.45 300.977 1053.89 293.973L1140.96 116.709C1143.37 111.796 1149.48 110.024 1154.15 112.885L1342.18 228.219Z" fill="white" fill-opacity="0.15"/>
<path d="M1374.23 258.263C1376.16 257.828 1378.19 258.025 1380 258.824L1566.69 340.966C1574.41 344.366 1573.97 355.477 1565.99 358.244L834.555 612.051C825.76 615.103 818.443 604.758 824.249 597.481L1031.94 337.204C1033.26 335.551 1035.11 334.398 1037.17 333.935L1374.23 258.263Z" fill="white" fill-opacity="0.15"/>
<path d="M1517.37 -335.307L1734.97 -653.376C1740.65 -661.672 1753.62 -656.297 1751.77 -646.417L1657.3 -142.994C1656.72 -139.901 1654.61 -137.313 1651.7 -136.116L1266.77 22.1897C1258.01 25.7932 1250.11 15.506 1255.85 7.96968L1517.37 -335.307Z" fill="white" fill-opacity="0.15"/>
<path d="M-297.053 -123.795C-299.267 -124.71 -301.043 -126.444 -302.009 -128.636L-446.803 -457.275C-451.078 -466.978 -465.656 -463.097 -464.541 -452.553L-370.177 439.644C-369.457 446.45 -361.875 450.167 -356.055 446.568L205.258 99.5281C211.703 95.5432 210.922 85.9332 203.918 83.0413L-297.053 -123.795Z" fill="white" fill-opacity="0.15"/>
<path d="M34.8157 228.219C27.7086 232.578 29.4984 243.368 37.6323 245.199L312.729 307.13C320.341 308.843 326.546 300.976 323.106 293.973L236.045 116.708C233.632 111.796 227.516 110.023 222.85 112.885L34.8157 228.219Z" fill="white" fill-opacity="0.15"/>
<path d="M2.77323 258.263C0.837436 257.828 -1.18661 258.025 -3.00259 258.824L-189.687 340.966C-197.414 344.366 -196.967 355.477 -188.991 358.244L542.445 612.05C551.24 615.102 558.557 604.758 552.751 597.481L345.056 337.204C343.737 335.551 341.893 334.398 339.83 333.935L2.77323 258.263Z" fill="white" fill-opacity="0.15"/>
<path d="M-140.373 -335.308L-357.974 -653.376C-363.65 -661.672 -376.624 -656.297 -374.77 -646.418L-280.3 -142.994C-279.719 -139.902 -277.613 -137.313 -274.703 -136.116L110.227 22.1895C118.989 25.793 126.89 15.5058 121.149 7.96944L-140.373 -335.308Z" fill="white" fill-opacity="0.15"/>
</g>
</svg>
