<svg width="1920" height="214" viewBox="0 0 1920 214" fill="none" xmlns="http://www.w3.org/2000/svg">
<mask id="mask0_2001_19" style="mask-type:alpha" maskUnits="userSpaceOnUse" x="0" y="0" width="1920" height="214">
<rect width="1920" height="214" transform="matrix(-1 0 0 1 1920 0)" fill="#F6F6F6"/>
</mask>
<g mask="url(#mask0_2001_19)">
<path d="M1236.52 459.257C1234.58 461.669 1231.78 463.238 1228.71 463.637L974.491 496.708C960.909 498.475 960.413 517.957 973.888 520.413L1644.44 642.618C1653.14 644.203 1660.51 636.158 1658.17 627.634L1522.53 133.895C1519.94 124.455 1507.74 121.925 1501.61 129.555L1236.52 459.257Z" fill="white" fill-opacity="0.1"/>
<path d="M1577.62 274.359C1580.43 284.755 1594.46 286.464 1599.69 277.049L1699.2 97.9083C1704.1 89.0966 1696.61 78.5415 1686.67 80.2557L1545.24 104.664C1538.27 105.866 1533.85 112.802 1535.7 119.627L1577.62 274.359Z" fill="white" fill-opacity="0.1"/>
<path d="M1108.25 291.487L886.694 363.523C873.036 367.963 877.295 388.291 891.587 386.876L1305.21 345.919C1308.48 345.595 1311.47 343.949 1313.49 341.363L1429.91 192.28C1437.39 182.698 1427.52 169.342 1416.16 173.687L1108.25 291.487Z" fill="white" fill-opacity="0.1"/>
<path d="M1049.57 132.943C1046.78 132.47 1043.9 133.003 1041.46 134.447L722.643 323.096C711.081 329.938 717.778 347.708 730.98 345.216L1124.44 270.94C1125.17 270.803 1125.88 270.598 1126.57 270.329L1308.69 199.352C1320.04 194.929 1318.34 178.369 1306.33 176.339L1049.57 132.943Z" fill="white" fill-opacity="0.1"/>
<path d="M697.317 92.6214C694.47 92.099 691.531 92.623 689.04 94.0968L366.416 284.996C354.994 291.754 361.372 309.313 374.469 307.165L852.89 228.719C854.377 228.476 855.805 227.954 857.1 227.181L964.533 163.034C974.042 157.357 971.44 142.927 960.547 140.928L697.317 92.6214Z" fill="white" fill-opacity="0.1"/>
<path d="M1730.61 84.2575C1726.98 84.9242 1723.86 87.2215 1722.15 90.4876L1520.48 475.14C1514.71 486.144 1527.42 497.587 1537.76 490.701L1934.11 226.799C1936.5 225.209 1938.24 222.817 1939.01 220.055L1985.37 54.9969C1987.77 46.4492 1980.38 38.3448 1971.65 39.9499L1730.61 84.2575Z" fill="white" fill-opacity="0.1"/>
</g>
</svg>
