<svg width="25" height="25" viewBox="0 0 25 25" fill="none" xmlns="http://www.w3.org/2000/svg">
<path d="M0.5 12.4546C0.5 5.82717 5.87258 0.45459 12.5 0.45459C19.1274 0.45459 24.5 5.82717 24.5 12.4546C24.5 19.082 19.1274 24.4546 12.5 24.4546C5.87258 24.4546 0.5 19.082 0.5 12.4546Z" fill="white"/>
<path fill-rule="evenodd" clip-rule="evenodd" d="M9.16094 7.86594C9.16094 8.65049 8.57039 9.27826 7.62216 9.27826H7.60478C6.69179 9.27826 6.10156 8.65049 6.10156 7.86594C6.10156 7.06479 6.70977 6.45459 7.64008 6.45459C8.57039 6.45459 9.14329 7.06479 9.16094 7.86594ZM8.9804 10.3936V18.5644H6.26094V10.3936H8.9804ZM18.7911 18.5644L18.7912 13.8795C18.7912 11.3697 17.4496 10.2017 15.6601 10.2017C14.2162 10.2017 13.5698 10.9947 13.2089 11.5511V10.3937H10.4891C10.5249 11.1605 10.4891 18.5646 10.4891 18.5646H13.2089V14.0013C13.2089 13.7571 13.2265 13.5135 13.2984 13.3387C13.4949 12.8508 13.9425 12.3457 14.6938 12.3457C15.6782 12.3457 16.0717 13.095 16.0717 14.193V18.5644H18.7911Z" fill="#282828"/>
</svg>
