<svg width="24" height="24" viewBox="0 0 24 24" fill="none" xmlns="http://www.w3.org/2000/svg">
<path d="M0 12C0 5.37258 5.37258 0 12 0C18.6274 0 24 5.37258 24 12C24 18.6274 18.6274 24 12 24C5.37258 24 0 18.6274 0 12Z" fill="white"/>
<path d="M15.7379 7.42201C15.5719 7.42201 15.4094 7.47128 15.2713 7.56357C15.1332 7.65587 15.0255 7.78707 14.962 7.94055C14.8984 8.09404 14.8817 8.26294 14.9142 8.42589C14.9465 8.58883 15.0266 8.7385 15.144 8.85598C15.2615 8.97346 15.4112 9.05346 15.5741 9.08587C15.737 9.11828 15.906 9.10165 16.0594 9.03807C16.2129 8.97449 16.3441 8.86683 16.4364 8.72869C16.5287 8.59055 16.5779 8.42815 16.5779 8.26201C16.5779 8.03923 16.4895 7.82557 16.3319 7.66804C16.1744 7.5105 15.9608 7.42201 15.7379 7.42201ZM18.958 9.11601C18.9444 8.53522 18.8356 7.96059 18.6359 7.415C18.4579 6.9482 18.181 6.5255 17.824 6.176C17.4773 5.8172 17.0536 5.54193 16.585 5.371C16.0409 5.16532 15.4655 5.05405 14.884 5.042C14.142 5 13.904 5 12 5C10.096 5 9.858 5 9.11599 5.042C8.5344 5.05405 7.95914 5.16532 7.415 5.371C6.94717 5.54366 6.52386 5.8187 6.176 6.176C5.8172 6.52263 5.54192 6.94632 5.371 7.415C5.16531 7.95915 5.05405 8.53441 5.042 9.11601C5 9.85801 5 10.096 5 12C5 13.904 5 14.142 5.042 14.884C5.05405 15.4656 5.16531 16.0408 5.371 16.585C5.54192 17.0537 5.8172 17.4774 6.176 17.824C6.52386 18.1813 6.94717 18.4564 7.415 18.6291C7.95914 18.8347 8.5344 18.946 9.11599 18.958C9.858 19 10.096 19 12 19C13.904 19 14.142 19 14.884 18.958C15.4655 18.946 16.0409 18.8347 16.585 18.6291C17.0536 18.4581 17.4773 18.1828 17.824 17.824C18.1825 17.4758 18.4598 17.0528 18.6359 16.585C18.8356 16.0394 18.9444 15.4648 18.958 14.884C18.958 14.142 19 13.904 19 12C19 10.096 19 9.85801 18.958 9.11601ZM17.698 14.8C17.6929 15.2444 17.6124 15.6846 17.4599 16.102C17.3482 16.4067 17.1687 16.6819 16.9349 16.9071C16.7079 17.1384 16.4332 17.3176 16.13 17.4321C15.7126 17.5844 15.2723 17.6649 14.828 17.67C14.128 17.7051 13.869 17.712 12.028 17.712C10.187 17.712 9.92799 17.712 9.228 17.67C8.76662 17.6787 8.30722 17.6076 7.87 17.46C7.58005 17.3397 7.31795 17.161 7.1 16.935C6.86766 16.7102 6.69039 16.4346 6.582 16.1301C6.4111 15.7066 6.31631 15.2564 6.302 14.8C6.302 14.1 6.26 13.841 6.26 12C6.26 10.159 6.26 9.90001 6.302 9.20001C6.30514 8.74575 6.38806 8.29557 6.547 7.87001C6.67024 7.57455 6.85939 7.31117 7.1 7.1C7.31267 6.85933 7.5755 6.66818 7.87 6.54001C8.29668 6.38604 8.74639 6.30556 9.19999 6.302C9.9 6.302 10.159 6.26 12 6.26C13.841 6.26 14.1 6.26 14.8 6.302C15.2443 6.3071 15.6846 6.38758 16.102 6.54001C16.4201 6.65806 16.7055 6.85 16.9349 7.1C17.1644 7.31504 17.3436 7.57792 17.4599 7.87001C17.6155 8.29627 17.6961 8.74625 17.698 9.20001C17.7329 9.90001 17.74 10.159 17.74 12C17.74 13.841 17.7329 14.1 17.698 14.8ZM12 8.40901C11.2901 8.4104 10.5965 8.62218 10.0069 9.0176C9.41724 9.41303 8.95806 9.97435 8.68734 10.6306C8.41662 11.2869 8.3465 12.0088 8.48585 12.7049C8.6252 13.401 8.96776 14.0402 9.47024 14.5417C9.97273 15.0432 10.6126 15.3845 11.309 15.5226C12.0054 15.6605 12.7271 15.589 13.3828 15.317C14.0385 15.045 14.599 14.5847 14.9933 13.9943C15.3876 13.404 15.598 12.71 15.598 12C15.5989 11.5276 15.5064 11.0596 15.3258 10.6231C15.1452 10.1865 14.8801 9.78998 14.5458 9.45625C14.2114 9.12252 13.8144 8.85818 13.3775 8.67846C12.9405 8.49874 12.4724 8.40716 12 8.40901ZM12 14.331C11.539 14.331 11.0883 14.1943 10.705 13.9382C10.3216 13.682 10.0229 13.318 9.84643 12.892C9.67 12.4661 9.62384 11.9974 9.71378 11.5453C9.80372 11.0931 10.0257 10.6777 10.3517 10.3517C10.6777 10.0258 11.0931 9.80374 11.5452 9.7138C11.9974 9.62385 12.4661 9.67002 12.892 9.84645C13.3179 10.0229 13.682 10.3216 13.9382 10.705C14.1943 11.0883 14.331 11.539 14.331 12C14.331 12.3061 14.2707 12.6093 14.1535 12.892C14.0364 13.1748 13.8647 13.4318 13.6483 13.6483C13.4318 13.8647 13.1749 14.0364 12.892 14.1536C12.6092 14.2707 12.3061 14.331 12 14.331Z" fill="#282828"/>
</svg>
