<svg width="227" height="39" viewBox="0 0 227 39" fill="none" xmlns="http://www.w3.org/2000/svg">
<g clip-path="url(#clip0_32_36)">
<path d="M14.6457 1.29665e-05C12.1063 -0.00297476 9.59189 0.510389 7.24894 1.51014C4.90602 2.5099 2.78158 3.97603 0.999596 5.82299C3.88834 3.56645 7.34245 2.4351 11.3619 2.42895C13.8112 2.40552 16.2359 2.9271 18.4677 3.95742C20.6132 4.94554 22.4993 6.43766 23.9723 8.31196C25.4727 10.2222 26.522 12.4596 27.0389 14.8507H21.6112C20.9094 12.7235 19.5469 10.8882 17.7305 9.62342C15.8577 8.34972 13.6479 7.69221 11.3981 7.73936C9.88456 7.69335 8.37834 7.97114 6.9762 8.55487C5.57407 9.13855 4.30707 10.0154 3.25661 11.1288C1.08554 13.3822 0 16.2498 0 19.7316C0 23.2134 1.07498 26.078 3.22495 28.3253C4.28007 29.4308 5.54843 30.301 6.94983 30.8804C8.35122 31.4598 9.85513 31.7361 11.3664 31.6916C13.6902 31.7422 15.9685 31.03 17.8661 29.6598C19.7106 28.2985 21.0585 26.3488 21.6972 24.1185H27.161C26.4449 27.8105 24.4746 31.1255 21.5977 33.4787C18.692 35.8332 15.0706 37.0748 11.3619 36.9882C8.0842 37.0588 4.85785 36.1486 2.08061 34.37C4.41967 36.4412 7.21519 37.9035 10.2282 38.6318C13.2413 39.3601 16.3823 39.3327 19.3827 38.5521C22.3832 37.7714 25.1538 36.2606 27.4579 34.1489C29.762 32.0372 31.531 29.3873 32.6137 26.4256C33.6965 23.464 34.0607 20.2788 33.6753 17.1422C33.2899 14.0057 32.1663 11.011 30.4006 8.4142C28.6349 5.8174 26.2796 3.69569 23.536 2.23041C20.7924 0.765133 17.742 -0.000135572 14.6457 1.29665e-05Z" fill="white"/>
<path d="M221.541 25.7915C220.621 25.7915 219.721 25.6712 218.844 25.4305C217.966 25.1898 217.265 24.8854 216.741 24.5172L217.76 22.4996C218.27 22.8394 218.879 23.1155 219.587 23.3279C220.309 23.5261 221.017 23.6252 221.711 23.6252C223.297 23.6252 224.089 23.2075 224.089 22.3721C224.089 21.9757 223.884 21.6996 223.474 21.5438C223.077 21.3881 222.433 21.2394 221.541 21.0978C220.606 20.9562 219.842 20.7934 219.247 20.6093C218.667 20.4253 218.157 20.1067 217.718 19.6536C217.293 19.1864 217.081 18.5421 217.081 17.7209C217.081 16.6448 217.527 15.7882 218.419 15.151C219.325 14.4997 220.543 14.1741 222.072 14.1741C222.851 14.1741 223.629 14.2661 224.408 14.4502C225.187 14.6201 225.824 14.8537 226.32 15.151L225.3 17.1687C224.337 16.6023 223.254 16.3192 222.051 16.3192C221.272 16.3192 220.677 16.4395 220.267 16.6802C219.87 16.9068 219.672 17.2112 219.672 17.5935C219.672 18.0182 219.884 18.3227 220.309 18.5067C220.748 18.6766 221.421 18.8395 222.327 18.9952C223.233 19.1368 223.976 19.2996 224.557 19.4837C225.137 19.6678 225.633 19.9793 226.043 20.4182C226.468 20.8571 226.681 21.4801 226.681 22.2872C226.681 23.3491 226.22 24.1987 225.3 24.8358C224.38 25.473 223.127 25.7915 221.541 25.7915Z" fill="white"/>
<path d="M209.932 14.1741C211.362 14.1741 212.509 14.5918 213.373 15.4271C214.237 16.2625 214.669 17.5014 214.669 19.1439V25.6429H212.014V19.4837C212.014 18.4926 211.78 17.7492 211.313 17.2537C210.846 16.7439 210.18 16.4891 209.316 16.4891C208.339 16.4891 207.568 16.7864 207.001 17.3811C206.435 17.9616 206.152 18.8041 206.152 19.9085V25.6429H203.497V14.3015H206.024V15.767C206.463 15.2431 207.016 14.8466 207.681 14.5776C208.347 14.3086 209.097 14.1741 209.932 14.1741Z" fill="white"/>
<path d="M194.906 25.7915C193.759 25.7915 192.725 25.5438 191.805 25.0482C190.884 24.5526 190.162 23.8659 189.638 22.9881C189.129 22.096 188.874 21.0907 188.874 19.9722C188.874 18.8536 189.129 17.8554 189.638 16.9776C190.162 16.0997 190.884 15.413 191.805 14.9174C192.725 14.4219 193.759 14.1741 194.906 14.1741C196.067 14.1741 197.107 14.4219 198.028 14.9174C198.948 15.413 199.663 16.0997 200.173 16.9776C200.697 17.8554 200.958 18.8536 200.958 19.9722C200.958 21.0907 200.697 22.096 200.173 22.9881C199.663 23.8659 198.948 24.5526 198.028 25.0482C197.107 25.5438 196.067 25.7915 194.906 25.7915ZM194.906 23.519C195.882 23.519 196.69 23.1934 197.327 22.542C197.964 21.8907 198.282 21.0341 198.282 19.9722C198.282 18.9103 197.964 18.0536 197.327 17.4023C196.69 16.751 195.882 16.4254 194.906 16.4254C193.929 16.4254 193.121 16.751 192.484 17.4023C191.861 18.0536 191.55 18.9103 191.55 19.9722C191.55 21.0341 191.861 21.8907 192.484 22.542C193.121 23.1934 193.929 23.519 194.906 23.519Z" fill="white"/>
<path d="M183.669 14.3013H186.324V25.6427H183.669V14.3013ZM185.007 12.4324C184.526 12.4324 184.122 12.2837 183.796 11.9864C183.471 11.6749 183.308 11.2926 183.308 10.8395C183.308 10.3864 183.471 10.0112 183.796 9.71383C184.122 9.40233 184.526 9.24658 185.007 9.24658C185.488 9.24658 185.892 9.39525 186.218 9.69259C186.543 9.97577 186.706 10.3368 186.706 10.7758C186.706 11.243 186.543 11.6395 186.218 11.9651C185.906 12.2766 185.503 12.4324 185.007 12.4324Z" fill="white"/>
<path d="M181.475 25.0268C181.163 25.2816 180.781 25.4728 180.328 25.6002C179.889 25.7276 179.422 25.7914 178.926 25.7914C177.68 25.7914 176.717 25.4657 176.038 24.8144C175.358 24.1631 175.018 23.2144 175.018 21.9684V11.7952H177.673V14.3863H180.71V16.5101H177.673V21.9047C177.673 22.4569 177.807 22.8817 178.076 23.179C178.36 23.4622 178.749 23.6038 179.245 23.6038C179.839 23.6038 180.335 23.448 180.731 23.1365L181.475 25.0268Z" fill="white"/>
<path d="M171.627 14.3015V25.6429H169.1V24.1987C168.675 24.7084 168.144 25.1048 167.507 25.388C166.87 25.657 166.183 25.7916 165.447 25.7916C163.932 25.7916 162.735 25.3739 161.857 24.5385C160.994 23.6889 160.562 22.4359 160.562 20.7793V14.3015H163.217V20.4182C163.217 21.4377 163.443 22.2022 163.896 22.712C164.363 23.2075 165.022 23.4553 165.871 23.4553C166.82 23.4553 167.57 23.1651 168.123 22.5845C168.689 21.9899 168.972 21.1403 168.972 20.0359V14.3015H171.627Z" fill="white"/>
<path d="M157.25 25.7914C156.075 25.7914 155.154 25.4729 154.489 24.8357C153.838 24.1844 153.512 23.2711 153.512 22.0959V9.88379H156.167V21.9048C156.167 23.0375 156.698 23.6039 157.76 23.6039C158.114 23.6039 158.432 23.5331 158.715 23.3915L158.843 25.5153C158.347 25.6994 157.816 25.7914 157.25 25.7914Z" fill="white"/>
<path d="M144.92 25.7915C143.774 25.7915 142.74 25.5438 141.82 25.0482C140.899 24.5526 140.177 23.8659 139.653 22.9881C139.144 22.096 138.889 21.0907 138.889 19.9722C138.889 18.8536 139.144 17.8554 139.653 16.9776C140.177 16.0997 140.899 15.413 141.82 14.9174C142.74 14.4219 143.774 14.1741 144.92 14.1741C146.081 14.1741 147.122 14.4219 148.042 14.9174C148.963 15.413 149.678 16.0997 150.188 16.9776C150.711 17.8554 150.973 18.8536 150.973 19.9722C150.973 21.0907 150.711 22.096 150.188 22.9881C149.678 23.8659 148.963 24.5526 148.042 25.0482C147.122 25.5438 146.081 25.7915 144.92 25.7915ZM144.92 23.519C145.897 23.519 146.704 23.1934 147.342 22.542C147.979 21.8907 148.297 21.0341 148.297 19.9722C148.297 18.9103 147.979 18.0536 147.342 17.4023C146.704 16.751 145.897 16.4254 144.92 16.4254C143.943 16.4254 143.136 16.751 142.499 17.4023C141.876 18.0536 141.565 18.9103 141.565 19.9722C141.565 21.0341 141.876 21.8907 142.499 22.542C143.136 23.1934 143.943 23.519 144.92 23.519Z" fill="white"/>
<path d="M131.33 25.8552C130.183 25.8552 129.071 25.6924 127.995 25.3667C126.933 25.0411 126.091 24.6092 125.468 24.0712L126.424 21.9261C127.032 22.4075 127.776 22.8039 128.654 23.1154C129.546 23.4128 130.438 23.5615 131.33 23.5615C132.434 23.5615 133.255 23.3845 133.793 23.0305C134.345 22.6765 134.622 22.2093 134.622 21.6287C134.622 21.204 134.466 20.8571 134.154 20.5881C133.857 20.3049 133.475 20.0854 133.007 19.9297C132.54 19.7739 131.903 19.5969 131.096 19.3987C129.963 19.1297 129.043 18.8607 128.335 18.5916C127.641 18.3226 127.039 17.9049 126.53 17.3386C126.034 16.758 125.786 15.9793 125.786 15.0023C125.786 14.1811 126.006 13.4378 126.445 12.7723C126.898 12.0927 127.57 11.5546 128.462 11.1582C129.369 10.7617 130.473 10.5635 131.776 10.5635C132.682 10.5635 133.574 10.6767 134.452 10.9033C135.33 11.1298 136.087 11.4555 136.724 11.8803L135.853 14.0254C135.202 13.6431 134.522 13.3528 133.815 13.1546C133.107 12.9563 132.42 12.8572 131.754 12.8572C130.664 12.8572 129.85 13.0413 129.312 13.4094C128.788 13.7776 128.526 14.2661 128.526 14.8749C128.526 15.2997 128.675 15.6466 128.972 15.9156C129.284 16.1846 129.673 16.397 130.14 16.5527C130.607 16.7085 131.245 16.8855 132.052 17.0837C133.156 17.3386 134.062 17.6076 134.77 17.8908C135.478 18.1598 136.08 18.5775 136.576 19.1438C137.085 19.7102 137.34 20.4748 137.34 21.4376C137.34 22.2588 137.114 23.0022 136.66 23.6676C136.222 24.3331 135.549 24.8641 134.643 25.2605C133.737 25.657 132.632 25.8552 131.33 25.8552Z" fill="white"/>
<path d="M117.12 14.3015V23.9226C117.12 27.9154 115.159 29.9118 111.237 29.9118C110.204 29.9118 109.213 29.7702 108.264 29.4871C107.329 29.218 106.558 28.8216 105.949 28.2977L107.138 26.3013C107.62 26.7119 108.207 27.0375 108.901 27.2782C109.595 27.519 110.324 27.6393 111.089 27.6393C112.25 27.6393 113.099 27.3561 113.637 26.7898C114.19 26.2376 114.466 25.3809 114.466 24.2199V23.6889C114.041 24.1562 113.524 24.5172 112.915 24.7721C112.306 25.0128 111.648 25.1332 110.94 25.1332C109.425 25.1332 108.229 24.7155 107.351 23.8801C106.487 23.0447 106.055 21.7916 106.055 20.1209V14.3015H108.71V19.7811C108.71 20.7863 108.937 21.5438 109.39 22.0536C109.857 22.5491 110.515 22.7969 111.365 22.7969C112.313 22.7969 113.064 22.5067 113.616 21.9261C114.182 21.3456 114.466 20.5032 114.466 19.3988V14.3015H117.12Z" fill="white"/>
<path d="M103.946 25.0268C103.634 25.2816 103.252 25.4728 102.799 25.6002C102.36 25.7276 101.893 25.7914 101.397 25.7914C100.151 25.7914 99.1883 25.4657 98.5087 24.8144C97.8291 24.1631 97.4893 23.2144 97.4893 21.9684V11.7952H100.144V14.3863H103.181V16.5101H100.144V21.9047C100.144 22.4569 100.279 22.8817 100.548 23.179C100.831 23.4622 101.22 23.6038 101.716 23.6038C102.31 23.6038 102.806 23.448 103.202 23.1365L103.946 25.0268Z" fill="white"/>
<path d="M91.435 14.3013H94.0898V25.6427H91.435V14.3013ZM92.7731 12.4324C92.2916 12.4324 91.8881 12.2837 91.5625 11.9864C91.2368 11.6749 91.074 11.2926 91.074 10.8395C91.074 10.3864 91.2368 10.0112 91.5625 9.71383C91.8881 9.40233 92.2916 9.24658 92.7731 9.24658C93.2545 9.24658 93.658 9.39525 93.9836 9.69259C94.3093 9.97577 94.4721 10.3368 94.4721 10.7758C94.4721 11.243 94.3093 11.6395 93.9836 11.9651C93.6721 12.2766 93.2686 12.4324 92.7731 12.4324Z" fill="white"/>
<path d="M85.1475 15.9581C85.9121 14.7688 87.2572 14.1741 89.1828 14.1741V16.7015C88.9563 16.659 88.751 16.6377 88.5669 16.6377C87.5333 16.6377 86.7262 16.9422 86.1457 17.551C85.5652 18.1457 85.2749 19.0094 85.2749 20.1421V25.6429H82.6201V14.3015H85.1475V15.9581Z" fill="white"/>
<path d="M79.1465 14.3015V25.6429H76.6191V24.1774C76.1802 24.7155 75.6351 25.119 74.9837 25.388C74.3466 25.657 73.6386 25.7915 72.8599 25.7915C71.7555 25.7915 70.7644 25.5508 69.8865 25.0694C69.0228 24.588 68.3432 23.9084 67.8476 23.0305C67.3662 22.1527 67.1255 21.1332 67.1255 19.9722C67.1255 18.8111 67.3662 17.7988 67.8476 16.9351C68.3432 16.0572 69.0228 15.3776 69.8865 14.8962C70.7644 14.4148 71.7555 14.1741 72.8599 14.1741C73.5962 14.1741 74.2687 14.3015 74.8775 14.5564C75.5005 14.8112 76.0386 15.1864 76.4917 15.682V14.3015H79.1465ZM73.1572 23.519C74.1342 23.519 74.9413 23.1934 75.5784 22.542C76.2156 21.8907 76.5342 21.0341 76.5342 19.9722C76.5342 18.9103 76.2156 18.0536 75.5784 17.4023C74.9413 16.751 74.1342 16.4254 73.1572 16.4254C72.1803 16.4254 71.3732 16.751 70.736 17.4023C70.113 18.0536 69.8015 18.9103 69.8015 19.9722C69.8015 21.0341 70.113 21.8907 70.736 22.542C71.3732 23.1934 72.1803 23.519 73.1572 23.519Z" fill="white"/>
<path d="M64.8708 25.7914C63.6956 25.7914 62.7753 25.4729 62.1098 24.8357C61.4585 24.1844 61.1328 23.2711 61.1328 22.0959V9.88379H63.7876V21.9048C63.7876 23.0375 64.3186 23.6039 65.3805 23.6039C65.7345 23.6039 66.0531 23.5331 66.3362 23.3915L66.4637 25.5153C65.9681 25.6994 65.4372 25.7914 64.8708 25.7914Z" fill="white"/>
<path d="M52.8377 25.8552C51.3369 25.8552 49.9776 25.5296 48.7599 24.8782C47.5564 24.2128 46.6078 23.2995 45.914 22.1385C45.2343 20.9774 44.8945 19.6677 44.8945 18.2093C44.8945 16.751 45.2414 15.4413 45.9352 14.2802C46.629 13.1192 47.5777 12.213 48.7812 11.5617C49.9989 10.8962 51.3581 10.5635 52.859 10.5635C54.0767 10.5635 55.1881 10.7759 56.1934 11.2006C57.1987 11.6254 58.0483 12.2413 58.742 13.0484L56.958 14.7262C55.8819 13.5652 54.5581 12.9847 52.9864 12.9847C51.967 12.9847 51.0537 13.2112 50.2466 13.6643C49.4396 14.1032 48.8095 14.7191 48.3564 15.5121C47.9033 16.305 47.6768 17.2041 47.6768 18.2093C47.6768 19.2146 47.9033 20.1137 48.3564 20.9066C48.8095 21.6995 49.4396 22.3225 50.2466 22.7756C51.0537 23.2146 51.967 23.434 52.9864 23.434C54.5581 23.434 55.8819 22.8464 56.958 21.6712L58.742 23.3703C58.0483 24.1774 57.1916 24.7933 56.1722 25.2181C55.1669 25.6428 54.0554 25.8552 52.8377 25.8552Z" fill="white"/>
</g>
<defs>
<clipPath id="clip0_32_36">
<rect width="227" height="39" fill="white"/>
</clipPath>
</defs>
</svg>
