<svg width="25" height="25" viewBox="0 0 25 25" fill="none" xmlns="http://www.w3.org/2000/svg">
<path fill-rule="evenodd" clip-rule="evenodd" d="M0.5 12.4546C0.5 19.082 5.87258 24.4546 12.5 24.4546C19.1274 24.4546 24.5 19.082 24.5 12.4546C24.5 5.82717 19.1274 0.45459 12.5 0.45459C5.87258 0.45459 0.5 5.82717 0.5 12.4546ZM10.3 17.9546L10.5042 14.8957L10.504 14.8956L16.0685 9.87409C16.3127 9.65735 16.0151 9.55166 15.6909 9.74825L8.82364 14.0807L5.85734 13.1549C5.21675 12.9588 5.21215 12.5186 6.00116 12.2021L17.5602 7.74502C18.0881 7.50534 18.5976 7.87182 18.3961 8.67984L16.4276 17.9561C16.2901 18.6153 15.8919 18.773 15.34 18.4685L12.3414 16.2531L10.9 17.6546C10.8955 17.659 10.8909 17.6634 10.8864 17.6678C10.7252 17.8247 10.5919 17.9546 10.3 17.9546Z" fill="white"/>
</svg>
