<svg width="24" height="24" viewBox="0 0 24 24" fill="none" xmlns="http://www.w3.org/2000/svg">
<path d="M0 12C0 5.37258 5.37258 0 12 0C18.6274 0 24 5.37258 24 12C24 18.6274 18.6274 24 12 24C5.37258 24 0 18.6274 0 12Z" fill="white"/>
<path d="M11.7978 9.07766L11.8281 9.57808L11.3224 9.5168C9.48129 9.28191 7.87288 8.48534 6.50725 7.1475L5.83961 6.48369L5.66764 6.97389C5.30347 8.06663 5.53614 9.22064 6.29482 9.99679C6.69945 10.4257 6.60841 10.487 5.91042 10.2317C5.66764 10.15 5.45521 10.0887 5.43498 10.1193C5.36417 10.1908 5.60695 11.1202 5.79915 11.4878C6.06216 11.9984 6.59829 12.4989 7.18501 12.795L7.68068 13.0299L7.09396 13.0401C6.52748 13.0401 6.50725 13.0503 6.56794 13.2648C6.77026 13.9286 7.56941 14.6333 8.45959 14.9396L9.08677 15.1541L8.54052 15.4809C7.73126 15.9507 6.78038 16.2162 5.82949 16.2366C5.37428 16.2468 5 16.2877 5 16.3183C5 16.4205 6.23412 16.9924 6.95234 17.217C9.107 17.8808 11.6663 17.5949 13.5883 16.4613C14.9539 15.6545 16.3195 14.0512 16.9568 12.4989C17.3008 11.6716 17.6447 10.1602 17.6447 9.4351C17.6447 8.96533 17.6751 8.90405 18.2415 8.34236C18.5754 8.01556 18.889 7.65813 18.9496 7.556C19.0508 7.36196 19.0407 7.36196 18.5248 7.53558C17.6649 7.84195 17.5436 7.8011 17.9684 7.34154C18.282 7.01474 18.6563 6.42241 18.6563 6.2488C18.6563 6.21816 18.5046 6.26922 18.3326 6.36114C18.1505 6.46326 17.7459 6.61645 17.4424 6.70836L16.8961 6.88198L16.4005 6.54496C16.1273 6.36114 15.7429 6.15689 15.5406 6.09561C15.0247 5.95264 14.2357 5.97306 13.7704 6.13646C12.5059 6.59602 11.7068 7.78068 11.7978 9.07766Z" fill="#282828"/>
</svg>
