<svg width="25" height="25" viewBox="0 0 25 25" fill="none" xmlns="http://www.w3.org/2000/svg">
<path fill-rule="evenodd" clip-rule="evenodd" d="M0.5 12.4546C0.5 19.082 5.87258 24.4546 12.5 24.4546C19.1274 24.4546 24.5 19.082 24.5 12.4546C24.5 5.82717 19.1274 0.45459 12.5 0.45459C5.87258 0.45459 0.5 5.82717 0.5 12.4546ZM20.0311 11.9953C20.0295 15.9287 16.8297 19.1292 12.8955 19.1308H12.8926C11.6984 19.1304 10.5249 18.8308 9.48267 18.2623L5.7 19.2546L6.71231 15.557C6.08787 14.4749 5.75929 13.2473 5.75982 11.9897C5.76139 8.05544 8.96241 4.85459 12.8955 4.85459C14.8043 4.85541 16.5959 5.59852 17.9431 6.9473C19.2903 8.296 20.0318 10.0888 20.0311 11.9953Z" fill="white"/>
<path fill-rule="evenodd" clip-rule="evenodd" d="M7.41325 17.5594L9.65794 16.9705L9.87451 17.0991C10.7851 17.6394 11.8289 17.9254 12.8931 17.9258H12.8955C16.1644 17.9258 18.825 15.2652 18.8263 11.9949C18.8269 10.4102 18.2106 8.92014 17.0908 7.79909C15.9711 6.67804 14.482 6.06036 12.8979 6.05981C9.62647 6.05981 6.9659 8.72015 6.9646 11.9901C6.96414 13.1108 7.2777 14.2022 7.87138 15.1464L8.01239 15.3708L7.41325 17.5594ZM16.2462 13.5316C16.3706 13.5917 16.4545 13.6323 16.4904 13.6922C16.535 13.7665 16.535 14.1235 16.3865 14.54C16.2378 14.9565 15.5255 15.3366 15.183 15.3878C14.8758 15.4337 14.4871 15.4528 14.06 15.3171C13.801 15.235 13.4689 15.1252 13.0436 14.9415C11.3721 14.2198 10.2425 12.5998 10.029 12.2936C10.0141 12.2722 10.0036 12.2572 9.99779 12.2494L9.99635 12.2474C9.90199 12.1216 9.26977 11.278 9.26977 10.405C9.26977 9.58372 9.67319 9.15325 9.85888 8.9551C9.87161 8.94153 9.88331 8.92904 9.89378 8.9176C10.0572 8.7391 10.2504 8.69447 10.3692 8.69447C10.4881 8.69447 10.6071 8.69557 10.711 8.70079C10.7238 8.70143 10.7371 8.70135 10.7509 8.70127C10.8548 8.70066 10.9843 8.6999 11.1121 9.00685C11.1613 9.12497 11.2332 9.3001 11.3091 9.4848C11.4625 9.8583 11.632 10.271 11.6618 10.3307C11.7064 10.4199 11.7361 10.524 11.6767 10.6431C11.6678 10.6609 11.6595 10.6778 11.6516 10.6939C11.607 10.785 11.5741 10.852 11.4984 10.9405C11.4686 10.9753 11.4378 11.0128 11.407 11.0503C11.3457 11.125 11.2843 11.1997 11.2309 11.2529C11.1417 11.3418 11.0488 11.4382 11.1528 11.6167C11.2568 11.7952 11.6146 12.3791 12.1446 12.8518C12.7144 13.36 13.2096 13.5748 13.4606 13.6837C13.5096 13.705 13.5493 13.7222 13.5784 13.7368C13.7567 13.8261 13.8607 13.8111 13.9647 13.6922C14.0687 13.5732 14.4104 13.1715 14.5292 12.9931C14.6481 12.8146 14.767 12.8443 14.9304 12.9038C15.0938 12.9634 15.9704 13.3947 16.1487 13.4839C16.1835 13.5013 16.2161 13.517 16.2462 13.5316Z" fill="white"/>
</svg>
