<svg width="25" height="25" viewBox="0 0 25 25" fill="none" xmlns="http://www.w3.org/2000/svg">
<path d="M0.5 12.4546C0.5 5.82717 5.87258 0.45459 12.5 0.45459C19.1274 0.45459 24.5 5.82717 24.5 12.4546C24.5 19.082 19.1274 24.4546 12.5 24.4546C5.87258 24.4546 0.5 19.082 0.5 12.4546Z" fill="white"/>
<path d="M18.6326 9.4913C18.4854 8.92579 18.0517 8.48048 17.5009 8.32935C16.5028 8.05469 12.5001 8.05469 12.5001 8.05469C12.5001 8.05469 8.49741 8.05469 7.49922 8.32935C6.94846 8.48048 6.51472 8.92579 6.36752 9.4913C6.1001 10.5162 6.1001 12.6547 6.1001 12.6547C6.1001 12.6547 6.1001 14.7931 6.36752 15.8181C6.51472 16.3836 6.94846 16.8289 7.49922 16.9801C8.49741 17.2547 12.5001 17.2547 12.5001 17.2547C12.5001 17.2547 16.5028 17.2547 17.5009 16.9801C18.0517 16.8289 18.4854 16.3836 18.6326 15.8181C18.9001 14.7931 18.9001 12.6547 18.9001 12.6547C18.9001 12.6547 18.9001 10.5162 18.6326 9.4913Z" fill="#282828"/>
<path d="M11.3 14.8545V10.8545L14.5 12.8546L11.3 14.8545Z" fill="white"/>
</svg>
