<svg width="24" height="25" viewBox="0 0 24 25" fill="none" xmlns="http://www.w3.org/2000/svg">
<g clip-path="url(#clip0_4_1870)">
<path d="M16.6185 0.396484C16.6743 0.396484 16.7302 0.396484 16.7892 0.396484C16.9262 2.08901 16.2802 3.35367 15.495 4.26949C14.7246 5.17899 13.6697 6.06109 11.9635 5.92724C11.8497 4.25895 12.4967 3.08809 13.2808 2.17438C14.008 1.32284 15.3412 0.565105 16.6185 0.396484Z" fill="white"/>
<path d="M21.7836 18.0131C21.7836 18.03 21.7836 18.0447 21.7836 18.0605C21.3041 19.5128 20.6201 20.7574 19.7855 21.9125C19.0235 22.9611 18.0898 24.3722 16.4225 24.3722C14.9819 24.3722 14.025 23.4459 12.5485 23.4206C10.9866 23.3953 10.1277 24.1952 8.6997 24.3965C8.53635 24.3965 8.373 24.3965 8.21281 24.3965C7.1642 24.2447 6.31793 23.4142 5.70141 22.666C3.88347 20.455 2.47865 17.5989 2.21729 13.9441C2.21729 13.5858 2.21729 13.2285 2.21729 12.8702C2.32794 10.2545 3.59892 8.12772 5.28829 7.09703C6.17987 6.54901 7.40553 6.08214 8.77031 6.29081C9.35521 6.38144 9.95276 6.58168 10.4765 6.77981C10.9729 6.97056 11.5937 7.30886 12.1817 7.29094C12.5801 7.27935 12.9763 7.07173 13.3779 6.92524C14.554 6.50053 15.7069 6.01364 17.2266 6.24233C19.053 6.51845 20.3493 7.32993 21.1502 8.58194C19.6052 9.56521 18.3838 11.047 18.5925 13.5773C18.778 15.8758 20.1143 17.2206 21.7836 18.0131Z" fill="white"/>
</g>
<defs>
<clipPath id="clip0_4_1870">
<rect width="24" height="24" fill="white" transform="translate(0 0.396484)"/>
</clipPath>
</defs>
</svg>
