<svg width="672" height="443" viewBox="0 0 672 443" fill="none" xmlns="http://www.w3.org/2000/svg">
<mask id="mask0_3_1834" style="mask-type:alpha" maskUnits="userSpaceOnUse" x="0" y="0" width="672" height="443">
<rect width="672" height="442" rx="40" transform="matrix(1 0 0 -1 0 442.396)" fill="#F6F6F6"/>
</mask>
<g mask="url(#mask0_3_1834)">
<path d="M382.634 703.94C381.712 706.894 379.685 709.379 376.976 710.874L148.192 837.111C136.2 843.728 142.872 862.04 156.31 859.391L836.19 725.403C844.864 723.694 848.774 713.51 843.474 706.435L531.625 290.159C525.755 282.324 513.48 284.435 510.565 293.781L382.634 703.94Z" fill="#E9E9E9"/>
<path d="M704.19 490.688C710.831 499.437 724.762 495.406 725.704 484.463L740.123 317.01C740.674 310.617 736.097 304.922 729.735 304.083L572.494 283.366C561.925 281.974 554.923 294.026 561.368 302.518L704.19 490.688Z" fill="#E9E9E9"/>
<path d="M214.643 546.342L30.9733 697.686C19.8898 706.819 31.2958 724.176 44.0769 717.626L420.895 524.53C423.815 523.034 425.995 520.407 426.927 517.261L481.666 332.58C485.121 320.923 471.043 312.11 462.067 320.31L214.643 546.342Z" fill="#E9E9E9"/>
<path d="M76.5741 439.954C73.7988 440.538 71.32 442.086 69.5774 444.324L-162.012 741.711C-170.266 752.31 -157.528 766.394 -146.155 759.242L198.599 542.412C199.226 542.018 199.815 541.566 200.359 541.063L346.414 405.956C355.355 397.685 347.713 382.896 335.795 385.404L76.5741 439.954Z" fill="#E9E9E9"/>
</g>
</svg>
