<svg width="672" height="443" viewBox="0 0 672 443" fill="none" xmlns="http://www.w3.org/2000/svg">
<mask id="mask0_4_1966" style="mask-type:alpha" maskUnits="userSpaceOnUse" x="0" y="0" width="672" height="443">
<rect width="672" height="442" transform="matrix(-1 0 0 1 672 0.396484)" fill="#F6F6F6"/>
</mask>
<g mask="url(#mask0_4_1966)">
<path d="M152.597 894.935C150.782 897.442 148.069 899.15 145.024 899.704L-439.822 1006.07C-453.298 1008.52 -452.809 1028.01 -439.227 1029.78L1007.7 1218.53C1016.46 1219.67 1023.42 1211.26 1020.65 1202.87L686.489 189.944C683.422 180.648 671.114 178.737 665.373 186.667L152.597 894.935Z" fill="white" fill-opacity="0.1"/>
<path d="M827.228 515.325C830.566 525.566 844.66 526.564 849.408 516.896L1054.16 99.9936C1058.6 90.9458 1050.59 80.7827 1040.75 82.9967L723.397 154.445C716.499 155.998 712.433 163.148 714.624 169.871L827.228 515.325Z" fill="white" fill-opacity="0.1"/>
<path d="M-117.74 568.88L-656.557 774.717C-669.972 779.842 -664.692 799.929 -650.49 797.793L286.268 656.935C289.513 656.447 292.417 654.652 294.303 651.967L539.545 302.9C546.534 292.952 535.998 280.112 524.877 285.025L-117.74 568.88Z" fill="white" fill-opacity="0.1"/>
<path d="M-255.318 257.613C-258.135 257.283 -260.978 257.96 -263.343 259.526L-941.737 708.706C-952.939 716.123 -945.352 733.531 -932.293 730.375L-86.3876 525.941C-85.6676 525.767 -84.9653 525.527 -84.2896 525.223L312.943 346.79C324.053 341.8 321.522 325.346 309.426 323.926L-255.318 257.613Z" fill="white" fill-opacity="0.1"/>
</g>
</svg>
