<svg width="24" height="25" viewBox="0 0 24 25" fill="none" xmlns="http://www.w3.org/2000/svg">
<g clip-path="url(#clip0_4_1875)">
<path d="M5.23825 0.78031C4.2993 0.261339 3.19686 0.273338 2.26392 0.787809L13.1983 10.8747L16.8716 7.20145L5.23825 0.78031Z" fill="white"/>
<path d="M1.17071 1.81982C0.903724 2.2563 0.750732 2.75577 0.750732 3.28524V21.5032C0.750732 22.0162 0.890224 22.5052 1.14221 22.9326L12.1381 11.9368L1.17071 1.81982Z" fill="white"/>
<path d="M21.7419 9.88932L18.2381 7.95593L14.3008 11.8917L19.126 16.342L21.7434 14.8975C22.6853 14.3756 23.2493 13.4396 23.2493 12.3927C23.2478 11.3457 22.6853 10.4098 21.7419 9.88932Z" fill="white"/>
<path d="M13.2405 12.9536L2.2146 23.9795C2.69307 24.2525 3.21804 24.3965 3.74601 24.3965C4.25598 24.3965 4.76896 24.2675 5.23843 24.008L17.7432 17.1069L13.2405 12.9536Z" fill="white"/>
</g>
<defs>
<clipPath id="clip0_4_1875">
<rect width="24" height="24" fill="white" transform="translate(0 0.396484)"/>
</clipPath>
</defs>
</svg>
