<svg width="1920" height="695" viewBox="0 0 1920 695" fill="none" xmlns="http://www.w3.org/2000/svg">
<mask id="mask0_3_1607" style="mask-type:alpha" maskUnits="userSpaceOnUse" x="0" y="0" width="1920" height="695">
<rect width="1920" height="693.906" transform="matrix(-1 0 0 1 1920 0.48999)" fill="#F6F6F6"/>
</mask>
<g mask="url(#mask0_3_1607)">
<path d="M1463.94 1034.74C1462.96 1037.68 1460.89 1040.13 1458.15 1041.57L932.491 1319.13C920.379 1325.53 926.712 1343.96 940.197 1341.56L2376.79 1085.8C2385.5 1084.25 2389.59 1074.14 2384.42 1066.97L1760.73 201.7C1755.01 193.758 1742.7 195.643 1739.61 204.933L1463.94 1034.74Z" fill="white" fill-opacity="0.1"/>
<path d="M1992.93 469.591C1999.2 478.351 2012.94 475.058 2014.55 464.409L2084.25 5.19958C2085.76 -4.76638 2075.05 -12.0435 2066.34 -6.97078L1785.24 156.733C1779.13 160.291 1777.4 168.334 1781.52 174.085L1992.93 469.591Z" fill="white" fill-opacity="0.1"/>
<path d="M1107.96 805.24L656.144 1163.79C644.895 1172.71 655.98 1190.28 668.879 1183.96L1519.73 767.538C1522.68 766.096 1524.9 763.509 1525.89 760.381L1654.63 353.664C1658.3 342.073 1644.38 333.002 1635.26 341.036L1107.96 805.24Z" fill="white" fill-opacity="0.1"/>
<path d="M883.028 549.855C880.242 550.388 877.735 551.89 875.952 554.096L364.324 1186.72C355.876 1197.17 368.353 1211.49 379.855 1204.54L1124.92 754.852C1125.56 754.469 1126.16 754.028 1126.71 753.536L1451.76 463.758C1460.86 455.654 1453.49 440.726 1441.52 443.015L883.028 549.855Z" fill="white" fill-opacity="0.1"/>
<path d="M194.553 720.079C191.703 720.582 189.131 722.099 187.311 724.35L-327.095 1360.41C-335.441 1370.73 -323.337 1384.96 -311.813 1378.38L587.524 864.678C588.833 863.93 589.989 862.942 590.933 861.766L768.908 639.904C775.838 631.265 768.365 618.65 757.459 620.578L194.553 720.079Z" fill="white" fill-opacity="0.1"/>
</g>
</svg>
