<svg width="1440" height="405" viewBox="0 0 1440 405" fill="none" xmlns="http://www.w3.org/2000/svg">
<mask id="mask0_4_2277" style="mask-type:alpha" maskUnits="userSpaceOnUse" x="0" y="0" width="1440" height="405">
<rect y="0.45459" width="1440" height="404" fill="#F6F6F6"/>
</mask>
<g mask="url(#mask0_4_2277)">
<path d="M176.005 533.696C176.981 536.633 179.053 539.08 181.79 540.525L341.502 624.855C353.614 631.251 347.28 649.682 333.795 647.281L-165.717 558.352C-174.42 556.803 -178.518 546.693 -173.348 539.521L53.3904 224.959C59.1145 217.017 71.4268 218.902 74.5131 228.192L176.005 533.696Z" fill="#E9E9E9"/>
<path d="M-17.7725 302.532C-24.0395 311.291 -37.7801 307.999 -39.3962 297.35L-61.4191 152.242C-62.9316 142.276 -52.2267 134.999 -43.5161 140.071L45.3119 191.801C51.4221 195.359 53.1467 203.402 49.0326 209.153L-17.7725 302.532Z" fill="#E9E9E9"/>
<path d="M315.042 447.458L437.184 544.386C448.433 553.313 437.348 570.877 424.449 564.564L158.115 434.213C155.168 432.771 152.94 430.184 151.949 427.056L110.925 297.445C107.256 285.854 121.169 276.783 130.295 284.817L315.042 447.458Z" fill="#E9E9E9"/>
<path d="M399.667 347.873C402.453 348.406 404.959 349.908 406.743 352.113L577.25 562.945C585.698 573.391 573.221 587.707 561.719 580.765L309.044 428.261C308.41 427.878 307.812 427.438 307.259 426.945L201.503 332.667C192.412 324.562 199.781 309.634 211.743 311.923L399.667 347.873Z" fill="#E9E9E9"/>
<path d="M666.706 413.941C669.556 414.444 672.128 415.961 673.948 418.212L847.233 632.479C855.579 642.798 843.475 657.028 831.951 650.445L518.165 471.21C516.856 470.463 515.699 469.475 514.756 468.299L458.796 398.539C451.866 389.901 459.339 377.286 470.245 379.214L666.706 413.941Z" fill="#E9E9E9"/>
</g>
</svg>
