<svg width="672" height="443" viewBox="0 0 672 443" fill="none" xmlns="http://www.w3.org/2000/svg">
<mask id="mask0_4_2404" style="mask-type:alpha" maskUnits="userSpaceOnUse" x="0" y="0" width="672" height="443">
<rect y="0.45459" width="672" height="442" rx="40" fill="#F6F6F6"/>
</mask>
<g mask="url(#mask0_4_2404)">
<path d="M382.634 -261.089C381.712 -264.043 379.685 -266.527 376.976 -268.023L148.192 -394.26C136.2 -400.877 142.872 -419.189 156.31 -416.54L836.19 -282.552C844.864 -280.843 848.774 -270.659 843.474 -263.584L531.625 152.692C525.755 160.527 513.48 158.416 510.565 149.07L382.634 -261.089Z" fill="#E9E9E9"/>
<path d="M704.19 -47.8369C710.831 -56.5863 724.762 -52.5551 725.704 -41.6115L740.123 125.841C740.674 132.234 736.097 137.929 729.735 138.768L572.494 159.485C561.925 160.877 554.923 148.825 561.368 140.333L704.19 -47.8369Z" fill="#E9E9E9"/>
<path d="M214.643 -103.49L30.9733 -254.835C19.8898 -263.967 31.2958 -281.325 44.0769 -274.775L420.895 -81.6794C423.815 -80.183 425.995 -77.556 426.927 -74.41L481.666 110.271C485.121 121.928 471.043 130.741 462.067 122.541L214.643 -103.49Z" fill="#E9E9E9"/>
<path d="M76.5741 2.8969C73.7988 2.31286 71.32 0.764727 69.5774 -1.4729L-162.012 -298.86C-170.266 -309.459 -157.528 -323.543 -146.155 -316.391L198.599 -99.561C199.226 -99.1666 199.815 -98.715 200.359 -98.212L346.414 36.8955C355.355 45.1659 347.713 59.9554 335.795 57.4473L76.5741 2.8969Z" fill="#E9E9E9"/>
</g>
</svg>
