<svg width="672" height="443" viewBox="0 0 672 443" fill="none" xmlns="http://www.w3.org/2000/svg">
<mask id="mask0_4_2397" style="mask-type:alpha" maskUnits="userSpaceOnUse" x="0" y="0" width="672" height="443">
<rect width="672" height="442" rx="40" transform="matrix(-1 0 0 1 672 0.45459)" fill="#F6F6F6"/>
</mask>
<g mask="url(#mask0_4_2397)">
<path d="M152.597 894.993C150.782 897.5 148.069 899.209 145.024 899.762L-439.822 1006.13C-453.298 1008.58 -452.809 1028.07 -439.227 1029.84L1007.7 1218.59C1016.46 1219.73 1023.42 1211.32 1020.65 1202.93L686.489 190.002C683.422 180.706 671.113 178.795 665.373 186.725L152.597 894.993Z" fill="white" fill-opacity="0.1"/>
<path d="M827.228 515.383C830.566 525.624 844.66 526.622 849.408 516.954L1054.16 100.052C1058.6 91.0039 1050.59 80.8408 1040.75 83.0548L723.397 154.503C716.499 156.056 712.433 163.206 714.624 169.929L827.228 515.383Z" fill="white" fill-opacity="0.1"/>
<path d="M-117.74 568.938L-656.557 774.775C-669.972 779.9 -664.692 799.987 -650.49 797.851L286.268 656.993C289.513 656.505 292.417 654.71 294.303 652.025L539.545 302.958C546.534 293.01 535.999 280.17 524.877 285.083L-117.74 568.938Z" fill="white" fill-opacity="0.1"/>
<path d="M-255.318 257.671C-258.135 257.341 -260.978 258.018 -263.343 259.584L-941.737 708.764C-952.939 716.181 -945.352 733.59 -932.293 730.434L-86.3876 525.999C-85.6676 525.825 -84.9653 525.585 -84.2896 525.281L312.943 346.848C324.053 341.858 321.522 325.404 309.426 323.984L-255.318 257.671Z" fill="white" fill-opacity="0.1"/>
</g>
</svg>
