<svg width="1371" height="551" viewBox="0 0 1371 551" fill="none" xmlns="http://www.w3.org/2000/svg">
<path d="M1083.74 -250.376C1082.55 -253.234 1080.3 -255.522 1077.47 -256.764L838.104 -361.559C825.557 -367.052 830.527 -385.897 844.151 -384.488L1533.43 -313.21C1542.23 -312.301 1547.05 -302.518 1542.42 -294.987L1269.93 148.052C1264.8 156.391 1252.38 155.411 1248.63 146.371L1083.74 -250.376Z" fill="#E9E9E9"/>
<path d="M1396.76 -32.0173C1402.58 -41.7418 1417.4 -38.7043 1418.94 -27.4707L1447 178.129C1448.14 186.435 1440.62 193.315 1432.45 191.451L1299.33 161.106C1291.37 159.292 1287.51 150.236 1291.7 143.236L1396.76 -32.0173Z" fill="#E9E9E9"/>
<path d="M930.856 -78.081L734.121 -212.002C722.249 -220.083 732.02 -238.41 745.347 -233.057L1138.24 -75.2154C1141.28 -73.9922 1143.69 -71.5756 1144.91 -68.528L1216.3 110.376C1220.81 121.668 1207.59 131.731 1197.91 124.386L930.856 -78.081Z" fill="#E9E9E9"/>
<path d="M803.091 40.482C800.274 40.1541 797.664 38.8391 795.724 36.7701L537.919 -238.201C528.73 -248.002 540.128 -263.191 552.107 -257.108L915.238 -72.7015C915.899 -72.3661 916.527 -71.9703 917.114 -71.5191L1074.91 49.6713C1084.57 57.0897 1078.31 72.5159 1066.21 71.1078L803.091 40.482Z" fill="#E9E9E9"/>
<path d="M479.724 11.9175C476.845 11.6234 474.169 10.2986 472.189 8.18727L211.363 -270.007C202.285 -279.689 213.317 -294.765 225.291 -289.042L669.971 -76.5197C671.331 -75.8696 672.557 -74.9692 673.583 -73.8654L760.387 19.4583C767.93 27.5676 761.398 40.6946 750.381 39.569L479.724 11.9175Z" fill="#E9E9E9"/>
</svg>
