<svg width="24" height="25" viewBox="0 0 24 25" fill="none" xmlns="http://www.w3.org/2000/svg">
<path d="M19 12.3965H12M12 12.3965L15 15.3965M12 12.3965L15 9.39648M19 6.39648V5.39648C19 4.86605 18.7893 4.35734 18.4142 3.98227C18.0391 3.6072 17.5304 3.39648 17 3.39648H7C6.46957 3.39648 5.96086 3.6072 5.58579 3.98227C5.21071 4.35734 5 4.86605 5 5.39648V19.3965C5 19.9269 5.21071 20.4356 5.58579 20.8107C5.96086 21.1858 6.46957 21.3965 7 21.3965H17C17.5304 21.3965 18.0391 21.1858 18.4142 20.8107C18.7893 20.4356 19 19.9269 19 19.3965V18.3965" stroke="white" stroke-width="1.5" stroke-linecap="round" stroke-linejoin="round"/>
</svg>
