<svg width="24" height="25" viewBox="0 0 24 25" fill="none" xmlns="http://www.w3.org/2000/svg">
<path d="M6 3.39648H3V6.39648M18 3.39648H21V6.39648M6 21.3965H3V18.3965M7 18.3965V17.3965C7 16.0704 7.52678 14.7986 8.46447 13.861C9.40215 12.9233 10.6739 12.3965 12 12.3965M12 12.3965C13.3261 12.3965 14.5979 12.9233 15.5355 13.861C16.4732 14.7986 17 16.0704 17 17.3965V18.3965M12 12.3965C12.7956 12.3965 13.5587 12.0804 14.1213 11.5178C14.6839 10.9552 15 10.1921 15 9.39648C15 8.60083 14.6839 7.83777 14.1213 7.27516C13.5587 6.71255 12.7956 6.39648 12 6.39648C11.2044 6.39648 10.4413 6.71255 9.87868 7.27516C9.31607 7.83777 9 8.60083 9 9.39648C9 10.1921 9.31607 10.9552 9.87868 11.5178C10.4413 12.0804 11.2044 12.3965 12 12.3965ZM18 21.3965H21V18.3965" stroke="#F6F6F6" stroke-width="1.5" stroke-linecap="round" stroke-linejoin="round"/>
</svg>
