<svg width="1920" height="950" viewBox="0 0 1920 950" fill="none" xmlns="http://www.w3.org/2000/svg">
<mask id="mask0_21_4648" style="mask-type:alpha" maskUnits="userSpaceOnUse" x="0" y="0" width="1920" height="950">
<path d="M0 0H1920V950H960H0V0Z" fill="#F85C3A"/>
</mask>
<g mask="url(#mask0_21_4648)">
<path d="M2233.19 245.798C2236.05 244.617 2238.35 242.376 2239.59 239.544L2426.65 -185.01C2432.17 -197.544 2451 -192.53 2449.56 -178.91L2327.66 973.68C2326.73 982.472 2316.93 987.274 2309.41 982.625L1584.28 534.299C1575.95 529.151 1576.96 516.737 1586.01 513.001L2233.19 245.798Z" fill="#E9E9E9"/>
<path d="M1804.47 700.55C1813.65 706.181 1811.34 720.12 1800.83 722.486L1445.44 802.491C1435.61 804.705 1427.59 794.541 1432.04 785.494L1544.51 556.494C1547.62 550.147 1555.53 547.858 1561.55 551.555L1804.47 700.55Z" fill="#E9E9E9"/>
<path d="M1845.86 739.361C1848.36 738.8 1850.98 739.054 1853.32 740.086L2094.49 846.202C2104.47 850.594 2103.89 864.948 2093.59 868.523L1148.68 1196.4C1137.32 1200.35 1127.87 1186.98 1135.37 1177.58L1403.68 841.342C1405.38 839.207 1407.77 837.717 1410.43 837.119L1845.86 739.361Z" fill="#E9E9E9"/>
<path d="M2030.78 -27.4456L2311.89 -438.344C2319.23 -449.061 2335.99 -442.118 2333.59 -429.355L2211.55 220.996C2210.8 224.991 2208.08 228.335 2204.32 229.881L1707.05 434.389C1695.73 439.044 1685.52 425.755 1692.94 416.019L2030.78 -27.4456Z" fill="#E9E9E9"/>
<path d="M1810.47 -193.642C1810.8 -196.458 1812.12 -199.065 1814.19 -201L2284.26 -639.665C2294.07 -648.821 2309.23 -637.42 2303.15 -625.455L2001.91 -32.7108C2001.59 -32.0694 2001.2 -31.4587 2000.77 -30.886L1778.98 260.912C1771.59 270.645 1756.07 264.375 1757.51 252.235L1810.47 -193.642Z" fill="#E9E9E9"/>
<path d="M-313.192 245.797C-316.053 244.616 -318.346 242.376 -319.594 239.544L-506.647 -185.01C-512.17 -197.544 -531.003 -192.531 -529.562 -178.91L-407.657 973.68C-406.728 982.472 -396.933 987.274 -389.414 982.625L335.721 534.299C344.048 529.151 343.039 516.736 333.99 513.001L-313.192 245.797Z" fill="#E9E9E9"/>
<path d="M115.534 700.549C106.352 706.181 108.664 720.12 119.172 722.485L474.557 802.49C484.391 804.704 492.407 794.541 487.963 785.493L375.493 556.493C372.376 550.147 364.475 547.857 358.447 551.554L115.534 700.549Z" fill="#E9E9E9"/>
<path d="M74.1403 739.361C71.6395 738.8 69.0246 739.054 66.6787 740.086L-174.491 846.202C-184.473 850.594 -183.895 864.948 -173.592 868.523L771.318 1196.4C782.68 1200.35 792.133 1186.98 784.631 1177.58L516.32 841.342C514.616 839.207 512.234 837.717 509.569 837.119L74.1403 739.361Z" fill="#E9E9E9"/>
<path d="M-110.784 -27.4459L-391.893 -438.344C-399.225 -449.062 -415.986 -442.118 -413.591 -429.355L-291.549 220.995C-290.8 224.99 -288.079 228.334 -284.319 229.88L212.955 434.389C224.274 439.044 234.481 425.754 227.064 416.019L-110.784 -27.4459Z" fill="#E9E9E9"/>
<path d="M109.535 -193.642C109.2 -196.458 107.879 -199.065 105.806 -201L-364.261 -639.665C-374.073 -648.822 -389.226 -637.42 -383.146 -625.455L-81.9133 -32.7111C-81.5874 -32.0697 -81.2044 -31.459 -80.7691 -30.8862L141.017 260.911C148.415 270.645 163.928 264.375 162.486 252.235L109.535 -193.642Z" fill="#E9E9E9"/>
</g>
</svg>
